<?xml version="1.0" encoding="UTF-8" standalone="no"?>
<!-- Created with Inkscape (http://www.inkscape.org/) -->

<svg
   version="1.1"
   id="svg1"
   width="1043"
   height="956"
   viewBox="0 0 1043 956"
   sodipodi:docname="logo.svg"
   inkscape:version="1.4.2 (ebf0e94, 2025-05-08)"
   xmlns:inkscape="http://www.inkscape.org/namespaces/inkscape"
   xmlns:sodipodi="http://sodipodi.sourceforge.net/DTD/sodipodi-0.dtd"
   xmlns="http://www.w3.org/2000/svg"
   xmlns:svg="http://www.w3.org/2000/svg">
  <sodipodi:namedview
     id="namedview1"
     pagecolor="#ffffff"
     bordercolor="#000000"
     borderopacity="0.25"
     inkscape:showpageshadow="2"
     inkscape:pageopacity="0.0"
     inkscape:pagecheckerboard="0"
     inkscape:deskcolor="#d1d1d1"
     inkscape:zoom="0.76987447"
     inkscape:cx="381.23098"
     inkscape:cy="461.76359"
     inkscape:window-width="1920"
     inkscape:window-height="1043"
     inkscape:window-x="1920"
     inkscape:window-y="165"
     inkscape:window-maximized="1"
     inkscape:current-layer="g51" />
  <defs
     id="defs1" />
  <g
     id="g1">
    <g
       id="g51">
      <path
         style="fill:#ddb290"
         d="m 426.28286,882.05909 c -15.87691,-0.46191 -19.49849,-0.84093 -20.8358,-2.18061 -1.70886,-1.71187 -5.97551,-15.997 -14.94953,-50.05235 -2.9963,-11.37062 -6.30215,-22.92226 -7.34632,-25.67029 l -1.89849,-4.99644 8.24337,-13.8297 c 4.53385,-7.60633 12.842,-21.5922 18.46254,-31.0797 8.66925,-14.63374 10.57989,-17.25 12.59757,-17.25 1.30813,0 9.25562,1.11478 17.66111,2.47728 53.70702,8.70577 108.1423,8.19326 158.08635,-1.48839 5.48528,-1.06332 10.61116,-1.57631 11.39085,-1.13998 2.07023,1.15857 22.28293,32.33948 22.29513,34.39338 0.0269,4.5247 -47.25672,24.04854 -77.48964,31.99619 -4.58442,1.20516 -5.09689,1.64467 -6.16576,5.28796 -0.64117,2.18546 -4.15996,14.32356 -7.81953,26.97356 -3.65957,12.65 -7.94728,27.4623 -9.52824,32.91623 -4.45574,15.37115 -0.30223,14.07335 -45.26327,14.14286 -21.02276,0.0325 -46.87091,-0.19251 -57.44034,-0.5 z m 268.33807,-77.08454 c -4.7119,-2.98819 -5.37147,-4.56795 -2.56141,-6.13492 3.70312,-2.06497 33.14587,-12.96757 33.65212,-12.46132 0.84177,0.84176 -1.13705,2.95937 -11.94131,12.77885 -6.3787,5.79729 -10.53027,8.84284 -12.05422,8.84284 -1.2785,0 -4.47133,-1.36145 -7.09518,-3.02545 z M 209.53571,780.73503 c -27.66801,-28.08987 -62.16141,-64.20607 -63.96823,-66.97774 -1.15215,-1.76739 -1.56455,-3.63283 -1.15972,-5.24579 0.79328,-3.16071 8.90662,-17.31807 22.07026,-38.5115 C 179.68468,648.73731 185,639.64508 185,638.31685 c 0,-0.58675 -3.37937,-8.14867 -7.5097,-16.80425 -9.40309,-19.70522 -15.26331,-34.48637 -20.02653,-50.5126 -2.04335,-6.875 -4.22116,-13.04648 -4.83958,-13.7144 -1.24677,-1.34654 -13.86974,-5.21043 -35.12419,-10.75151 -19.542956,-5.09489 -36.525951,-10.32107 -39.170827,-12.05406 -1.265323,-0.82907 -2.517452,-2.96672 -2.88483,-4.92502 -0.357017,-1.90306 -0.490547,-28.94631 -0.296733,-60.0961 L 75.5,412.82292 l 2.215308,-1.79366 c 1.21842,-0.98651 3.91842,-2.09363 6,-2.46025 10.520858,-1.85302 68.886692,-14.81862 69.537452,-15.44731 0.41402,-0.39997 1.86188,-4.52848 3.21746,-9.17446 5.68608,-19.4879 15.25158,-41.25667 26.48804,-60.28039 C 185.73121,318.97214 188,314.40245 188,313.512 c 0,-1.55179 -6.08344,-11.83661 -25.81243,-43.63912 -13.52158,-21.79636 -15.63977,-26.12584 -14.19401,-29.01188 0.65051,-1.29855 8.96373,-10.011 18.47381,-19.361 9.51008,-9.35 27.43547,-27.0125 39.83419,-39.25 15.916,-15.70904 23.20364,-22.25 24.78993,-22.25 2.577,0 3.65151,0.58481 41.57574,22.628 15.49198,9.0046 28.88478,16.372 29.76177,16.372 0.87699,0 8.67673,-3.5415 17.33276,-7.87 18.13834,-9.07019 35.02333,-16.00225 50.70657,-20.81736 6.04704,-1.85657 11.37348,-3.75445 11.83654,-4.21751 0.7504,-0.7504 10.63463,-38.2134 17.40399,-65.96425 1.39116,-5.703012 3.32241,-11.162155 4.29169,-12.131427 1.58544,-1.585438 5.2117,-1.832882 36.13088,-2.465444 18.90271,-0.386723 45.49439,-0.55258 59.09262,-0.368571 23.16329,0.313442 24.84767,0.460817 26.68221,2.334562 1.82615,1.865173 4.84939,12.006496 18.63197,62.5 2.02671,7.425 4.0663,13.90909 4.53243,14.40908 0.46613,0.5 5.92842,2.44742 12.13842,4.32762 18.61248,5.63527 29.25407,9.90811 50.65314,20.33839 11.19922,5.4587 20.77612,9.92491 21.28199,9.92491 0.50586,0 6.64286,-3.21549 13.63777,-7.14553 25.96835,-14.59015 51.78529,-28.60395 53.93025,-29.2741 3.19187,-0.99724 5.52443,0.56143 17.55776,11.7325 11.01221,10.22312 12.7998,13.04378 10.90374,17.20519 -0.95771,2.10194 -1.68034,2.34855 -6.37692,2.17625 -4.96086,-0.18199 -6.02619,0.25574 -16.79681,6.90155 -6.325,3.90272 -17.8,10.84712 -25.5,15.432 -7.7,4.58487 -18.95,11.48486 -25,15.3333 -6.05,3.84843 -21.35,13.26061 -34,20.91594 -12.65,7.65533 -30.45425,18.59971 -39.56501,24.32084 C 572.82423,282.31907 564.4776,287 563.38692,287 c -1.09068,0 -5.62788,-1.78653 -10.08266,-3.97008 -11.62958,-5.70031 -20.01001,-8.71103 -35.02865,-12.58425 C 500.65645,265.90179 485.23253,264 466,264 424.6247,264 385.83245,275.09766 354,296.04088 325.66243,314.68475 307.4598,332.5152 289.72674,359 c -20.5402,30.67735 -31.12692,59.75457 -35.3167,97 -1.30331,11.58587 -2.24197,15.90682 -4.67053,21.5 -8.88226,20.4566 -25.51366,77.02917 -33.16061,112.79757 -7.14233,33.40806 -13.38418,77.20697 -16.62857,116.68224 l -1.19006,14.47981 4.08163,3.62213 c 8.10951,7.19656 35.27395,25.3933 59.94377,40.15475 6.35962,3.80535 10.17663,6.69746 10,7.57689 -0.36223,1.80352 -42.4388,23.09084 -45.74996,23.14575 -1.87952,0.0312 -6.03218,-3.58144 -17.5,-15.22411 z M 349,784.60365 C 321.39425,775.18245 287.48036,759.34093 261.67834,743.81482 249.49231,736.482 225.65366,720.15077 221.61,716.36507 l -2.89,-2.70564 0.65842,-11.07971 C 221.66761,664.05748 230.97907,607.18755 242.55961,561 c 5.75023,-22.93404 19.44586,-64.76011 29.3528,-89.64258 12.67369,-31.83152 32.51515,-72.95836 38.80436,-80.43267 5.78495,-6.87502 54.46186,-27.95069 80.68826,-34.93564 14.4686,-3.85346 34.22928,-7.84822 42.73102,-8.63837 6.52237,-0.60619 6.77694,-0.54524 7.35329,1.76066 0.32835,1.31373 0.46508,6.61594 0.30383,11.78269 -0.22274,7.13743 -0.6535,9.57362 -1.79317,10.14141 -0.825,0.41102 -6.46704,2.32132 -12.53786,4.24512 -12.56251,3.98096 -32.62219,12.82585 -42.96214,18.94324 -8.28054,4.89899 -20.77711,13.83236 -20.18203,14.42745 0.22993,0.22993 5.31495,-1.58478 11.30004,-4.03269 30.14924,-12.33105 58.34596,-19.87666 90.88199,-24.32056 18.45748,-2.52099 71.91455,-2.47532 92,0.0786 32.72771,4.16142 69.44896,13.74074 94.91841,24.76098 4.90513,2.12238 9.08838,3.6889 9.29612,3.48116 1.0984,-1.09839 -17.28673,-13.39407 -28.27145,-18.90749 -12.21012,-6.12847 -30.80287,-13.58246 -39.53566,-15.8502 -4.62408,-1.20078 -8.92602,-2.81173 -9.55986,-3.57988 -1.21309,-1.47014 -0.72609,-21.08862 0.5589,-22.51497 0.36356,-0.40356 7.40191,0.3865 15.64078,1.75568 35.5193,5.90279 68.858,16.58933 99.76167,31.97806 l 18.07381,9 9.60321,19.13448 c 46.15759,91.96943 69.4258,174.4489 80.58355,285.64681 1.63389,16.28328 1.62817,16.84352 -0.19281,18.87822 -3.1075,3.47223 -28.00503,20.81324 -41.80874,29.11959 -17.56738,10.57112 -40.72027,22.13456 -60.56793,30.24991 -19.42061,7.94075 -41.60725,15.5679 -43.30354,14.88655 -0.65805,-0.26432 -5.07279,-6.65346 -9.81052,-14.19807 -4.73773,-7.54462 -12.27523,-19.49072 -16.75,-26.54688 C 632.66117,740.61444 629,734.41729 629,733.89917 c 0,-1.05677 -0.75577,-0.72124 19,-8.43509 14.35748,-5.60603 41.21682,-19.56291 47.24234,-24.54846 l 3.12347,-2.58438 -2.86261,-6.91562 c -1.57443,-3.80359 -3.17614,-7.28752 -3.55936,-7.74207 -0.38321,-0.45455 -6.48984,2.35068 -13.57029,6.23384 -30.75419,16.86664 -67.79518,28.00677 -113.87355,34.24762 -14.96713,2.02715 -21.00594,2.29867 -50.5,2.27057 -38.9843,-0.0371 -53.88224,-1.35027 -84,-7.4039 -31.32677,-6.29664 -61.48954,-17.6051 -86.33263,-32.36737 C 339.35943,684.09444 335.4774,682 335.04065,682 c -0.43676,0 -2.197,3.4445 -3.91165,7.65444 -2.18693,5.36952 -2.81447,8.01961 -2.10226,8.87777 1.37346,1.65493 15.34692,10.08714 26.97326,16.27688 9.63732,5.13081 27.9912,12.96042 35.76188,15.25573 2.34403,0.69238 4.75901,1.85789 5.36663,2.59003 1.25858,1.5165 -2.26614,8.0742 -20.47588,38.09515 -8.67817,14.307 -11.51092,18.23591 -13.11125,18.18481 C 362.41862,788.89895 355.875,786.94993 349,784.60365 Z M 430.4477,634.47161 C 462.57513,626.10347 477.85856,592.46738 463.60424,561.5 456.15849,545.32419 438.49214,533.849 421,533.8264 c -4.125,-0.005 -9.69691,0.49677 -12.38203,1.11578 -16.40822,3.78263 -30.6418,17.44897 -35.77516,34.34943 -2.81481,9.26716 -2.27754,26.37503 1.08936,34.68751 2.82559,6.97606 9.92759,16.95458 14.79613,20.78901 11.98808,9.44173 28.22512,13.21829 41.7194,9.70348 z m 188.01075,-0.003 c 14.31538,-3.72869 25.00056,-12.48876 31.58329,-25.89306 7.72485,-15.72998 7.72698,-31.41707 0.006,-47.13859 -5.20403,-10.59703 -11.9103,-17.29781 -22.4853,-22.46692 -17.56421,-8.58546 -34.56707,-6.88572 -50.84806,5.08316 -11.99576,8.81861 -18.48469,21.84374 -19.43493,39.01146 -0.59814,10.80653 0.76794,17.12486 5.90111,27.29363 5.53291,10.96062 17.75838,20.56326 30.81904,24.20718 6.30248,1.75838 17.50602,1.71402 24.45845,-0.0969 z M 805.59159,558.1482 c -0.28954,-0.46849 -2.10783,-6.68849 -4.04065,-13.82223 -1.93282,-7.13374 -4.19748,-14.90701 -5.03258,-17.27393 -2.54365,-7.20949 -2.35035,-7.54698 8.23164,-14.37136 17.28609,-11.14789 49.75125,-30.48171 51.7801,-30.83635 1.9257,-0.3366 1.9699,0.36736 1.9699,31.37081 0,28.1821 -0.18442,31.89946 -1.65548,33.36977 -0.97147,0.97096 -10.68129,3.87263 -23.5,7.0227 -21.74541,5.34371 -26.75048,6.16258 -27.75293,4.54059 z M 783.60404,488.49493 C 781.07182,482.16714 779,476.35579 779,475.58082 c 0,-1.30229 5.68178,-4.99247 47.5,-30.85014 l 15,-9.27503 0.63295,-5.47782 c 0.79079,-6.84391 1.84045,-9.46186 5.75978,-14.36533 1.709,-2.13813 3.10727,-4.07393 3.10727,-4.30177 0,-0.22784 -3.41446,-5.8598 -7.58769,-12.51546 -9.1465,-14.58724 -9.89063,-17.47079 -5.61255,-21.74888 3.31,-3.31 7.51513,-3.99906 10.60717,-1.7381 0.98406,0.71956 5.25161,7.13206 9.48346,14.25 l 7.69426,12.94171 8.00252,-0.34914 c 5.73272,-0.25011 9.08809,0.10444 11.82981,1.25 2.105,0.87953 4.63039,1.59914 5.61198,1.59914 0.98159,0 15.52542,-8.4375 32.31961,-18.75 16.7942,-10.3125 32.56099,-19.96124 35.03731,-21.44164 4.77501,-2.85461 7.04783,-6.19071 8.06836,-11.84292 0.56805,-3.14611 -0.47643,-5.25314 -11.33498,-22.86603 l -11.96069,-19.40059 -11.82929,-0.19391 c -13.92531,-0.22827 -21.62185,-2.30909 -31.02828,-8.38876 -21.03687,-13.59679 -32.69891,-38.14163 -29.38333,-61.84246 1.28714,-9.20089 4.77754,-19.63254 8.15699,-24.37854 1.25669,-1.76486 1.84911,-3.66051 1.46277,-4.68064 -0.35712,-0.94298 -5.39475,-9.65876 -11.19473,-19.3684 l -10.54542,-17.65388 -6.35415,-1.59612 C 848.94834,171.71825 845.4008,171 844.55971,171 c -0.84109,0 -7.27361,3.5211 -14.29448,7.82466 -7.02088,4.30356 -21.97094,13.48035 -33.22237,20.39287 l -20.45713,12.56822 -1.22803,7.28825 c -0.87015,5.16424 -2.12121,8.55541 -4.29286,11.63636 -1.68566,2.39146 -3.06484,5.0135 -3.06484,5.82675 0,0.81325 2.25,5.43594 5,10.27263 6.12777,10.77751 6.53545,14.72047 1.92327,18.60137 -6.71166,5.64749 -10.98805,3.0251 -19.31074,-11.84189 -4.23499,-7.56503 -5.1695,-8.64559 -7,-8.09397 -5.0782,1.53031 -14.27785,1.62123 -18.89512,0.18673 l -4.7826,-1.48586 -20.2174,12.2304 c -36.79834,22.26094 -84.12502,51.14029 -90.21741,55.05181 -3.3,2.11872 -17.25,10.69006 -31,19.04743 -13.75,8.35736 -30.32211,18.47883 -36.8269,22.49213 -7.03153,4.33829 -12.91075,7.29172 -14.5,7.28409 -12.33256,-0.0592 -44.35215,-1.76267 -44.73356,-2.3798 -0.79329,-1.28358 8.17739,-7.08531 67.88188,-43.90218 21.85188,-13.475 51.34695,-31.71568 65.54458,-40.53485 14.19764,-8.81916 33.54391,-20.74416 42.99171,-26.5 9.4478,-5.75583 26.05733,-15.97439 36.91006,-22.70791 10.85272,-6.73352 20.43554,-12.24602 21.29514,-12.25 0.8596,-0.004 2.8846,1.39818 4.5,3.11592 7.94999,8.45364 19.882,7.41775 24.68554,-2.14309 2.29661,-4.57113 2.21163,-8.65129 -0.2769,-13.29434 -1.11565,-2.08155 -1.79272,-4.16607 -1.5046,-4.63225 0.28811,-0.46618 12.11342,-7.95565 26.27845,-16.64327 14.16503,-8.68762 30.0296,-18.48422 35.2546,-21.77022 5.225,-3.28601 14.04913,-8.62405 19.60917,-11.86232 l 10.10918,-5.88775 11.39082,3.05352 c 6.26496,1.67943 13.68359,3.0542 16.48584,3.05504 6.29829,0.002 6.12098,-0.18422 17.32298,18.18204 4.80357,7.87571 13.76212,22.57278 19.90789,32.66015 C 911.97165,205.92803 917,214.79006 917,215.53405 c 0,0.744 -2.47284,3.69143 -5.4952,6.54985 -7.26628,6.87215 -10.67737,13.92466 -11.2805,23.32273 -0.84244,13.12697 3.99532,23.49526 14.15162,30.32978 9.62663,6.47807 21.29892,7.4648 32.97812,2.78782 5.77456,-2.31245 7.06609,-2.53049 8.20043,-1.38448 1.28606,1.29929 22.75814,35.66836 36.14819,57.86025 7.3572,12.19339 7.98409,13.9868 5.99692,17.15581 -0.80847,1.2893 -3.32881,7.96919 -5.60075,14.84419 -2.27194,6.875 -4.4611,13.01535 -4.86481,13.64521 -0.75495,1.17787 -16.59111,11.20578 -37.73402,23.89427 -6.6,3.96086 -20.18014,12.18153 -30.17809,18.26817 -9.99795,6.08664 -19.61526,11.80981 -21.3718,12.71815 l -3.19372,1.65153 -4.12819,-4.03057 C 885.91926,428.54917 882.50212,427 877.06976,427 c -9.28706,0 -12.85298,8.30379 -9.51338,22.15333 0.58383,2.42116 -0.003,3.08575 -6.70828,7.59515 -7.5339,5.06677 -28.95494,18.45235 -45.8481,28.64958 -5.225,3.15396 -12.63865,7.72966 -16.47478,10.16821 -3.83613,2.43855 -7.72681,4.43373 -8.64595,4.43373 -1.19795,0 -2.97491,-3.25789 -6.27523,-11.50507 z M 737.39052,382.78924 c -2.13979,-2.86592 -6.14052,-6.91009 -8.89052,-8.98705 -2.75,-2.07696 -5,-4.26847 -5,-4.87003 0,-1.43273 32.5197,-21.86183 33.93552,-21.31853 0.59787,0.22943 3.94979,4.9972 7.44871,10.59507 4.56773,7.30784 6.10423,10.58604 5.44875,11.62519 C 769.60183,370.993 742.68468,388 741.5813,388 c -0.16515,0 -2.051,-2.34484 -4.19078,-5.21076 z M 823.15524,363.25 c -1.13648,-0.9625 -5.5317,-7.375 -9.76716,-14.25 -8.81068,-14.30151 -9.60127,-17.69955 -5.03232,-21.62959 3.71469,-3.19524 7.88374,-3.05797 11.52824,0.37959 4.01355,3.78565 17.116,25.95345 17.116,28.95826 0,1.36968 -1.28597,3.73155 -2.92308,5.36866 -3.38677,3.38678 -7.75397,3.85585 -10.92168,1.17308 z M 662.53459,344.94387 c -7.68098,-2.605 -14.1145,-5.18361 -14.29672,-5.73025 -0.32266,-0.968 10.67271,-7.90294 54.70622,-34.50397 14.50634,-8.76341 21.85915,-12.6723 22.72701,-12.08211 2.16198,1.47027 13.1294,19.72878 12.63089,21.02786 -0.969,2.52518 -57.18301,36.43237 -59.98988,36.18471 -0.99666,-0.0879 -8.09655,-2.29124 -15.77752,-4.89624 z M 795.3736,316.01456 c -2.58059,-1.04207 -4.24736,-3.38161 -12.36993,-17.36284 -6.90762,-11.88996 -7.60106,-15.32248 -3.89289,-19.26964 3.06465,-3.26217 9.67392,-3.33148 12.59452,-0.13208 3.7881,4.14971 15.24627,23.25784 15.8967,26.51002 0.82242,4.11206 -1.54956,7.90229 -6.14766,9.82351 -1.86456,0.77906 -3.51706,1.38795 -3.67222,1.35308 -0.15517,-0.0349 -1.239,-0.44978 -2.40852,-0.92205 z"
         id="path57" />
      <path
         style="fill:#98a8d2"
         d="m 413,880.33386 c -5.55004,-0.87418 -6.80931,-1.3923 -7.47424,-3.07523 -1.22899,-3.11058 -10.24494,-35.27546 -14.368,-51.25863 -2.19914,-8.525 -4.94972,-18.04235 -6.11241,-21.14968 l -2.11398,-5.64967 6.87672,-11.35033 C 393.59028,781.60765 401.33047,768.625 407.00852,759 c 5.67805,-9.625 11.03647,-18.22699 11.9076,-19.11553 1.45748,-1.4866 2.94622,-1.39386 18.65511,1.16212 30.34552,4.93748 50.13027,6.26675 84.42877,5.67245 31.37282,-0.5436 46.013,-1.90533 72.77546,-6.7691 8.01291,-1.45625 11.74957,-1.75909 12.63528,-1.02402 2.9986,2.48862 20.75459,31.20084 20.19569,32.65732 -1.58673,4.13495 -52.58433,24.70123 -72.08107,29.06882 -3.86395,0.86558 -7.76473,2.22416 -8.6684,3.01906 -0.90368,0.7949 -2.39055,4.45658 -3.30415,8.13707 -0.91361,3.6805 -4.07582,14.79181 -7.02713,24.69181 -2.95131,9.9 -6.58446,22.58801 -8.07365,28.19559 -1.4892,5.60757 -3.54351,11.57007 -4.56513,13.25 L 522.0294,881 468.7647,880.86382 C 439.46911,880.78892 414.375,880.55044 413,880.33386 Z m 283.25,-76.3229 c -1.7875,-1.08986 -3.25,-2.38555 -3.25,-2.87932 0,-0.7118 16.81184,-7.69575 25.19907,-10.46815 2.93406,-0.96986 0.95168,1.51059 -6.86235,8.58651 -8.07378,7.31112 -9.93884,7.89968 -15.08672,4.76096 z M 214.70445,783.83133 c -35.53039,-35.93599 -67.73516,-70.10549 -68.33791,-72.50704 -0.94017,-3.74594 -2.05642,-1.73547 31.81182,-57.29614 4.8519,-7.95952 8.82164,-15.05519 8.82164,-15.76817 0,-0.71297 -2.1977,-5.67574 -4.88378,-11.02838 C 170.74884,604.57945 163.78624,586.76699 155.83649,560 c -1.30805,-4.40423 -1.48547,-4.54875 -8.33649,-6.79066 -3.85,-1.25987 -15.55,-4.53757 -26,-7.28378 -29.806714,-7.83308 -42.456146,-11.9751 -43.706598,-14.31159 -1.298095,-2.42551 -1.290132,-112.43431 0.0085,-117.09209 0.645468,-2.31513 1.594765,-3.14726 4.264217,-3.73791 1.888648,-0.41789 18.283911,-3.95214 36.433901,-7.85389 18.15,-3.90174 33.81716,-7.61968 34.8159,-8.26208 1.15157,-0.7407 3.95417,-7.63507 7.66067,-18.84521 5.87022,-17.75419 14.97314,-37.5373 24.4736,-53.18775 2.50241,-4.12231 4.54983,-8.19041 4.54983,-9.04023 0,-0.84982 -4.35005,-8.6438 -9.66678,-17.31997 C 156.28028,257.02376 149,244.63934 149,242.97416 149,240.28098 228.75132,162 231.49508,162 c 2.01174,0 11.13084,5.05375 53.81611,29.82456 8.69616,5.04649 16.46339,9.17544 17.26053,9.17544 0.79713,0 9.43209,-3.9743 19.1888,-8.83177 20.44224,-10.17736 28.60248,-13.54839 48.43492,-20.00864 L 384.5,167.5 389.12422,149 c 11.22843,-44.92135 14.93957,-58.492391 16.39286,-59.946167 1.3604,-1.360848 8.67781,-1.596 58.91661,-1.893343 40.54746,-0.239984 57.96823,-0.01576 59.42689,0.764895 1.3619,0.728869 2.72827,3.394581 4.0183,7.83951 2.06784,7.124955 16.25615,58.848665 18.06782,65.866525 1.21634,4.71173 -0.14428,4.01399 21.0533,10.79638 19.18369,6.13802 26.04018,8.96651 47.81897,19.72661 l 18.31896,9.05072 6.18104,-3.25937 c 3.39956,-1.79265 12.25603,-6.71989 19.68103,-10.94941 30.72877,-17.50409 42.03419,-23.20459 44.69548,-22.53664 1.40059,0.35152 7.46311,5.43367 13.47227,11.29365 8.96485,8.74231 10.87248,11.11147 10.62899,13.20058 -0.26939,2.31141 -0.80362,2.59214 -5.79674,3.04606 -4.77899,0.43445 -7.79411,1.8702 -23,10.95223 -21.58785,12.89377 -34.66945,20.89722 -51.5,31.5082 -7.15,4.50778 -22.225,13.74929 -33.5,20.53668 -11.275,6.78739 -27.18266,16.58865 -35.35036,21.78056 l -14.85036,9.43985 -10.72748,-5.09404 C 524.71559,267.6583 492.21387,261.15969 459,262.31414 c -40.37097,1.40323 -76.64434,12.73274 -108,33.73239 -27.59168,18.47882 -45.22948,36.06551 -63.28326,63.09987 -21.11732,31.62182 -31.57536,61.52895 -35.61656,101.8536 -0.65401,6.52596 -1.79048,11.37834 -3.63023,15.5 -9.01747,20.20212 -27.47094,83.15092 -34.43622,117.46942 -3.7054,18.25682 -10.41977,60.25415 -12.47523,78.03058 -2.32355,20.09496 -4.54773,48.86448 -3.90685,50.53459 1.36919,3.56806 40.29788,30.1561 67.76195,46.28096 5.18796,3.04598 5.70801,3.62236 4.23814,4.69715 -2.44627,1.78876 -38.74482,20.14402 -41.44729,20.95885 -1.96672,0.59299 -3.9005,-0.93115 -13.5,-10.64022 z M 349,784.60365 C 321.39425,775.18245 287.48036,759.34093 261.67834,743.81482 249.49231,736.482 225.65366,720.15077 221.61,716.36507 l -2.89,-2.70564 0.65842,-11.07971 C 221.66761,664.05748 230.97907,607.18755 242.55961,561 c 5.75023,-22.93404 19.44586,-64.76011 29.3528,-89.64258 12.67369,-31.83152 32.51515,-72.95836 38.80436,-80.43267 5.78495,-6.87502 54.46186,-27.95069 80.68826,-34.93564 14.4686,-3.85346 34.22928,-7.84822 42.73102,-8.63837 6.52237,-0.60619 6.77694,-0.54524 7.35329,1.76066 0.32835,1.31373 0.46508,6.61594 0.30383,11.78269 -0.22274,7.13743 -0.6535,9.57362 -1.79317,10.14141 -0.825,0.41102 -6.46704,2.32132 -12.53786,4.24512 -12.56251,3.98096 -32.62219,12.82585 -42.96214,18.94324 -8.28054,4.89899 -20.77711,13.83236 -20.18203,14.42745 0.22993,0.22993 5.31495,-1.58478 11.30004,-4.03269 30.14924,-12.33105 58.34596,-19.87666 90.88199,-24.32056 18.45748,-2.52099 71.91455,-2.47532 92,0.0786 32.72771,4.16142 69.44896,13.74074 94.91841,24.76098 4.90513,2.12238 9.08838,3.6889 9.29612,3.48116 1.0984,-1.09839 -17.28673,-13.39407 -28.27145,-18.90749 -12.21012,-6.12847 -30.80287,-13.58246 -39.53566,-15.8502 -4.62408,-1.20078 -8.92602,-2.81173 -9.55986,-3.57988 -1.21309,-1.47014 -0.72609,-21.08862 0.5589,-22.51497 0.36356,-0.40356 7.40191,0.3865 15.64078,1.75568 35.5193,5.90279 68.858,16.58933 99.76167,31.97806 l 18.07381,9 9.60321,19.13448 c 46.15759,91.96943 69.4258,174.4489 80.58355,285.64681 1.63389,16.28328 1.62817,16.84352 -0.19281,18.87822 -3.1075,3.47223 -28.00503,20.81324 -41.80874,29.11959 -17.56738,10.57112 -40.72027,22.13456 -60.56793,30.24991 -19.42061,7.94075 -41.60725,15.5679 -43.30354,14.88655 -0.65805,-0.26432 -5.07279,-6.65346 -9.81052,-14.19807 -4.73773,-7.54462 -12.27523,-19.49072 -16.75,-26.54688 C 632.66117,740.61444 629,734.41729 629,733.89917 c 0,-1.05677 -0.75577,-0.72124 19,-8.43509 14.35748,-5.60603 41.21682,-19.56291 47.24234,-24.54846 l 3.12347,-2.58438 -2.86261,-6.91562 c -1.57443,-3.80359 -3.17614,-7.28752 -3.55936,-7.74207 -0.38321,-0.45455 -6.48984,2.35068 -13.57029,6.23384 -30.75419,16.86664 -67.79518,28.00677 -113.87355,34.24762 -14.96713,2.02715 -21.00594,2.29867 -50.5,2.27057 -38.9843,-0.0371 -53.88224,-1.35027 -84,-7.4039 -31.32677,-6.29664 -61.48954,-17.6051 -86.33263,-32.36737 C 339.35943,684.09444 335.4774,682 335.04065,682 c -0.43676,0 -2.197,3.4445 -3.91165,7.65444 -2.18693,5.36952 -2.81447,8.01961 -2.10226,8.87777 1.37346,1.65493 15.34692,10.08714 26.97326,16.27688 9.63732,5.13081 27.9912,12.96042 35.76188,15.25573 2.34403,0.69238 4.75901,1.85789 5.36663,2.59003 1.25858,1.5165 -2.26614,8.0742 -20.47588,38.09515 -8.67817,14.307 -11.51092,18.23591 -13.11125,18.18481 C 362.41862,788.89895 355.875,786.94993 349,784.60365 Z M 430.4477,634.47161 C 462.57513,626.10347 477.85856,592.46738 463.60424,561.5 456.15849,545.32419 438.49214,533.849 421,533.8264 c -4.125,-0.005 -9.69691,0.49677 -12.38203,1.11578 -16.40822,3.78263 -30.6418,17.44897 -35.77516,34.34943 -2.81481,9.26716 -2.27754,26.37503 1.08936,34.68751 2.82559,6.97606 9.92759,16.95458 14.79613,20.78901 11.98808,9.44173 28.22512,13.21829 41.7194,9.70348 z m 188.01075,-0.003 c 14.31538,-3.72869 25.00056,-12.48876 31.58329,-25.89306 7.72485,-15.72998 7.72698,-31.41707 0.006,-47.13859 -5.20403,-10.59703 -11.9103,-17.29781 -22.4853,-22.46692 -17.56421,-8.58546 -34.56707,-6.88572 -50.84806,5.08316 -11.99576,8.81861 -18.48469,21.84374 -19.43493,39.01146 -0.59814,10.80653 0.76794,17.12486 5.90111,27.29363 5.53291,10.96062 17.75838,20.56326 30.81904,24.20718 6.30248,1.75838 17.50602,1.71402 24.45845,-0.0969 z m 188.76168,-77.70357 c -0.58423,-0.70396 -2.21585,-5.77662 -3.62581,-11.27258 C 802.18435,539.9967 800.12727,532.575 799.02301,529 c -1.10425,-3.575 -2.00308,-7.175 -1.9974,-8 0.006,-0.825 2.13974,-2.88645 4.74236,-4.581 11.90058,-7.74839 53.05907,-32.419 54.0853,-32.419 0.8362,0 1.14673,7.92834 1.14673,29.27749 0,24.34694 -0.25147,29.63652 -1.49323,31.40938 -1.19647,1.7082 -5.71759,3.15514 -22.75,7.2809 -11.69122,2.83196 -21.98074,5.3579 -22.86559,5.6132 -0.88485,0.2553 -2.08682,-0.11178 -2.67105,-0.81573 z M 783.60404,488.49493 C 781.07182,482.16714 779,476.35579 779,475.58082 c 0,-1.30229 5.68178,-4.99247 47.5,-30.85014 l 15,-9.27503 0.63295,-5.47782 c 0.79079,-6.84391 1.84045,-9.46186 5.75978,-14.36533 1.709,-2.13813 3.10727,-4.07393 3.10727,-4.30177 0,-0.22784 -3.41446,-5.8598 -7.58769,-12.51546 -9.1465,-14.58724 -9.89063,-17.47079 -5.61255,-21.74888 3.31,-3.31 7.51513,-3.99906 10.60717,-1.7381 0.98406,0.71956 5.25161,7.13206 9.48346,14.25 l 7.69426,12.94171 8.00252,-0.34914 c 5.73272,-0.25011 9.08809,0.10444 11.82981,1.25 2.105,0.87953 4.63039,1.59914 5.61198,1.59914 0.98159,0 15.52542,-8.4375 32.31961,-18.75 16.7942,-10.3125 32.56099,-19.96124 35.03731,-21.44164 4.77501,-2.85461 7.04783,-6.19071 8.06836,-11.84292 0.56805,-3.14611 -0.47643,-5.25314 -11.33498,-22.86603 l -11.96069,-19.40059 -11.82929,-0.19391 c -13.92531,-0.22827 -21.62185,-2.30909 -31.02828,-8.38876 -21.03687,-13.59679 -32.69891,-38.14163 -29.38333,-61.84246 1.28714,-9.20089 4.77754,-19.63254 8.15699,-24.37854 1.25669,-1.76486 1.84911,-3.66051 1.46277,-4.68064 -0.35712,-0.94298 -5.39475,-9.65876 -11.19473,-19.3684 l -10.54542,-17.65388 -6.35415,-1.59612 C 848.94834,171.71825 845.4008,171 844.55971,171 c -0.84109,0 -7.27361,3.5211 -14.29448,7.82466 -7.02088,4.30356 -21.97094,13.48035 -33.22237,20.39287 l -20.45713,12.56822 -1.22803,7.28825 c -0.87015,5.16424 -2.12121,8.55541 -4.29286,11.63636 -1.68566,2.39146 -3.06484,5.0135 -3.06484,5.82675 0,0.81325 2.25,5.43594 5,10.27263 6.12777,10.77751 6.53545,14.72047 1.92327,18.60137 -6.71166,5.64749 -10.98805,3.0251 -19.31074,-11.84189 -4.23499,-7.56503 -5.1695,-8.64559 -7,-8.09397 -5.0782,1.53031 -14.27785,1.62123 -18.89512,0.18673 l -4.7826,-1.48586 -20.2174,12.2304 c -36.79834,22.26094 -84.12502,51.14029 -90.21741,55.05181 -3.3,2.11872 -17.25,10.69006 -31,19.04743 -13.75,8.35736 -30.32211,18.47883 -36.8269,22.49213 -7.03153,4.33829 -12.91075,7.29172 -14.5,7.28409 -12.33256,-0.0592 -44.35215,-1.76267 -44.73356,-2.3798 -0.79329,-1.28358 8.17739,-7.08531 67.88188,-43.90218 21.85188,-13.475 51.34695,-31.71568 65.54458,-40.53485 14.19764,-8.81916 33.54391,-20.74416 42.99171,-26.5 9.4478,-5.75583 26.05733,-15.97439 36.91006,-22.70791 10.85272,-6.73352 20.43554,-12.24602 21.29514,-12.25 0.8596,-0.004 2.8846,1.39818 4.5,3.11592 7.94999,8.45364 19.882,7.41775 24.68554,-2.14309 2.29661,-4.57113 2.21163,-8.65129 -0.2769,-13.29434 -1.11565,-2.08155 -1.79272,-4.16607 -1.5046,-4.63225 0.28811,-0.46618 12.11342,-7.95565 26.27845,-16.64327 14.16503,-8.68762 30.0296,-18.48422 35.2546,-21.77022 5.225,-3.28601 14.04913,-8.62405 19.60917,-11.86232 l 10.10918,-5.88775 11.39082,3.05352 c 6.26496,1.67943 13.68359,3.0542 16.48584,3.05504 6.29829,0.002 6.12098,-0.18422 17.32298,18.18204 4.80357,7.87571 13.76212,22.57278 19.90789,32.66015 C 911.97165,205.92803 917,214.79006 917,215.53405 c 0,0.744 -2.47284,3.69143 -5.4952,6.54985 -7.26628,6.87215 -10.67737,13.92466 -11.2805,23.32273 -0.84244,13.12697 3.99532,23.49526 14.15162,30.32978 9.62663,6.47807 21.29892,7.4648 32.97812,2.78782 5.77456,-2.31245 7.06609,-2.53049 8.20043,-1.38448 1.28606,1.29929 22.75814,35.66836 36.14819,57.86025 7.3572,12.19339 7.98409,13.9868 5.99692,17.15581 -0.80847,1.2893 -3.32881,7.96919 -5.60075,14.84419 -2.27194,6.875 -4.4611,13.01535 -4.86481,13.64521 -0.75495,1.17787 -16.59111,11.20578 -37.73402,23.89427 -6.6,3.96086 -20.18014,12.18153 -30.17809,18.26817 -9.99795,6.08664 -19.61526,11.80981 -21.3718,12.71815 l -3.19372,1.65153 -4.12819,-4.03057 C 885.91926,428.54917 882.50212,427 877.06976,427 c -9.28706,0 -12.85298,8.30379 -9.51338,22.15333 0.58383,2.42116 -0.003,3.08575 -6.70828,7.59515 -7.5339,5.06677 -28.95494,18.45235 -45.8481,28.64958 -5.225,3.15396 -12.63865,7.72966 -16.47478,10.16821 -3.83613,2.43855 -7.72681,4.43373 -8.64595,4.43373 -1.19795,0 -2.97491,-3.25789 -6.27523,-11.50507 z M 737.39052,382.78924 c -2.13979,-2.86592 -6.14052,-6.91009 -8.89052,-8.98705 -2.75,-2.07696 -5,-4.26847 -5,-4.87003 0,-1.43273 32.5197,-21.86183 33.93552,-21.31853 0.59787,0.22943 3.94979,4.9972 7.44871,10.59507 4.56773,7.30784 6.10423,10.58604 5.44875,11.62519 C 769.60183,370.993 742.68468,388 741.5813,388 c -0.16515,0 -2.051,-2.34484 -4.19078,-5.21076 z M 823.15524,363.25 c -1.13648,-0.9625 -5.5317,-7.375 -9.76716,-14.25 -8.81068,-14.30151 -9.60127,-17.69955 -5.03232,-21.62959 3.71469,-3.19524 7.88374,-3.05797 11.52824,0.37959 4.01355,3.78565 17.116,25.95345 17.116,28.95826 0,1.36968 -1.28597,3.73155 -2.92308,5.36866 -3.38677,3.38678 -7.75397,3.85585 -10.92168,1.17308 z M 662.53459,344.94387 c -7.68098,-2.605 -14.1145,-5.18361 -14.29672,-5.73025 -0.32266,-0.968 10.67271,-7.90294 54.70622,-34.50397 14.50634,-8.76341 21.85915,-12.6723 22.72701,-12.08211 2.16198,1.47027 13.1294,19.72878 12.63089,21.02786 -0.969,2.52518 -57.18301,36.43237 -59.98988,36.18471 -0.99666,-0.0879 -8.09655,-2.29124 -15.77752,-4.89624 z M 795.3736,316.01456 c -2.58059,-1.04207 -4.24736,-3.38161 -12.36993,-17.36284 -6.90762,-11.88996 -7.60106,-15.32248 -3.89289,-19.26964 3.06465,-3.26217 9.67392,-3.33148 12.59452,-0.13208 3.7881,4.14971 15.24627,23.25784 15.8967,26.51002 0.82242,4.11206 -1.54956,7.90229 -6.14766,9.82351 -1.86456,0.77906 -3.51706,1.38795 -3.67222,1.35308 -0.15517,-0.0349 -1.239,-0.44978 -2.40852,-0.92205 z"
         id="path56" />
      <path
         style="fill:#7488c4"
         d="m 413,880.33386 c -5.55004,-0.87418 -6.80931,-1.3923 -7.47424,-3.07523 -1.22899,-3.11058 -10.24494,-35.27546 -14.368,-51.25863 -2.19914,-8.525 -4.94972,-18.04235 -6.11241,-21.14968 l -2.11398,-5.64967 6.87672,-11.35033 C 393.59028,781.60765 401.33047,768.625 407.00852,759 c 5.67805,-9.625 11.03647,-18.22699 11.9076,-19.11553 1.45748,-1.4866 2.94622,-1.39386 18.65511,1.16212 30.34552,4.93748 50.13027,6.26675 84.42877,5.67245 31.37282,-0.5436 46.013,-1.90533 72.77546,-6.7691 8.01291,-1.45625 11.74957,-1.75909 12.63528,-1.02402 2.9986,2.48862 20.75459,31.20084 20.19569,32.65732 -1.58673,4.13495 -52.58433,24.70123 -72.08107,29.06882 -3.86395,0.86558 -7.76473,2.22416 -8.6684,3.01906 -0.90368,0.7949 -2.39055,4.45658 -3.30415,8.13707 -0.91361,3.6805 -4.07582,14.79181 -7.02713,24.69181 -2.95131,9.9 -6.58446,22.58801 -8.07365,28.19559 -1.4892,5.60757 -3.54351,11.57007 -4.56513,13.25 L 522.0294,881 468.7647,880.86382 C 439.46911,880.78892 414.375,880.55044 413,880.33386 Z m 283.25,-76.3229 c -1.7875,-1.08986 -3.25,-2.38555 -3.25,-2.87932 0,-0.7118 16.81184,-7.69575 25.19907,-10.46815 2.93406,-0.96986 0.95168,1.51059 -6.86235,8.58651 -8.07378,7.31112 -9.93884,7.89968 -15.08672,4.76096 z M 214.70445,783.83133 c -35.53039,-35.93599 -67.73516,-70.10549 -68.33791,-72.50704 -0.94017,-3.74594 -2.05642,-1.73547 31.81182,-57.29614 4.8519,-7.95952 8.82164,-15.05519 8.82164,-15.76817 0,-0.71297 -2.1977,-5.67574 -4.88378,-11.02838 C 170.74884,604.57945 163.78624,586.76699 155.83649,560 c -1.30805,-4.40423 -1.48547,-4.54875 -8.33649,-6.79066 -3.85,-1.25987 -15.55,-4.53757 -26,-7.28378 -29.806714,-7.83308 -42.456146,-11.9751 -43.706598,-14.31159 -1.298095,-2.42551 -1.290132,-112.43431 0.0085,-117.09209 0.645468,-2.31513 1.594765,-3.14726 4.264217,-3.73791 1.888648,-0.41789 18.283911,-3.95214 36.433901,-7.85389 18.15,-3.90174 33.81716,-7.61968 34.8159,-8.26208 1.15157,-0.7407 3.95417,-7.63507 7.66067,-18.84521 5.87022,-17.75419 14.97314,-37.5373 24.4736,-53.18775 2.50241,-4.12231 4.54983,-8.19041 4.54983,-9.04023 0,-0.84982 -4.35005,-8.6438 -9.66678,-17.31997 C 156.28028,257.02376 149,244.63934 149,242.97416 149,240.28098 228.75132,162 231.49508,162 c 2.01174,0 11.13084,5.05375 53.81611,29.82456 8.69616,5.04649 16.46339,9.17544 17.26053,9.17544 0.79713,0 9.43209,-3.9743 19.1888,-8.83177 20.44224,-10.17736 28.60248,-13.54839 48.43492,-20.00864 L 384.5,167.5 389.12422,149 c 11.22843,-44.92135 14.93957,-58.492391 16.39286,-59.946167 1.3604,-1.360848 8.67781,-1.596 58.91661,-1.893343 40.54746,-0.239984 57.96823,-0.01576 59.42689,0.764895 1.3619,0.728869 2.72827,3.394581 4.0183,7.83951 2.06784,7.124955 16.25615,58.848665 18.06782,65.866525 1.21634,4.71173 -0.14428,4.01399 21.0533,10.79638 19.18369,6.13802 26.04018,8.96651 47.81897,19.72661 l 18.31896,9.05072 6.18104,-3.25937 c 3.39956,-1.79265 12.25603,-6.71989 19.68103,-10.94941 30.72877,-17.50409 42.03419,-23.20459 44.69548,-22.53664 1.40059,0.35152 7.46311,5.43367 13.47227,11.29365 8.96485,8.74231 10.87248,11.11147 10.62899,13.20058 -0.26939,2.31141 -0.80362,2.59214 -5.79674,3.04606 -4.77899,0.43445 -7.79411,1.8702 -23,10.95223 -21.58785,12.89377 -34.66945,20.89722 -51.5,31.5082 -7.15,4.50778 -22.225,13.74929 -33.5,20.53668 -11.275,6.78739 -27.18266,16.58865 -35.35036,21.78056 l -14.85036,9.43985 -10.72748,-5.09404 C 524.71559,267.6583 492.21387,261.15969 459,262.31414 c -40.37097,1.40323 -76.64434,12.73274 -108,33.73239 -27.59168,18.47882 -45.22948,36.06551 -63.28326,63.09987 -21.11732,31.62182 -31.57536,61.52895 -35.61656,101.8536 -0.65401,6.52596 -1.79048,11.37834 -3.63023,15.5 -9.01747,20.20212 -27.47094,83.15092 -34.43622,117.46942 -3.7054,18.25682 -10.41977,60.25415 -12.47523,78.03058 -2.32355,20.09496 -4.54773,48.86448 -3.90685,50.53459 1.36919,3.56806 40.29788,30.1561 67.76195,46.28096 5.18796,3.04598 5.70801,3.62236 4.23814,4.69715 -2.44627,1.78876 -38.74482,20.14402 -41.44729,20.95885 -1.96672,0.59299 -3.9005,-0.93115 -13.5,-10.64022 z M 351.5,784.04965 C 310.15893,769.7765 268.36405,748.48545 235,724.70248 c -15.88142,-11.32079 -15.26978,-10.49616 -14.50876,-19.56141 4.54495,-54.13912 11.51685,-96.53657 24.07479,-146.40325 4.86217,-19.30737 18.59248,-61.22621 27.77461,-84.79634 8.25927,-21.20116 25.00383,-57.50194 33.87655,-73.44148 l 5.56649,-10 13.85816,-7.2059 C 347.46335,371.94746 376.12834,361.1352 399.5,355.43527 411.88179,352.41557 435.01529,348 438.45396,348 c 1.39208,0 2.97826,19.91064 1.69161,21.23405 -0.39251,0.40372 -5.00082,2.02119 -10.24067,3.59438 -11.57941,3.47653 -34.65997,13.54914 -45.46925,19.84328 C 373.94006,398.78318 358,410.77388 358,412.55757 c 0,1.08163 1.36153,0.79302 5.75,-1.21885 52.98038,-24.28861 105.10608,-34.23825 164.93334,-31.48211 26.3342,1.21318 41.53779,3.09139 65.81666,8.13083 18.12652,3.76244 49.05093,13.86913 63.9714,20.90709 5.99966,2.83003 11.36206,4.99432 11.91643,4.80953 2.17009,-0.72337 -16.41913,-14.82752 -28.29846,-21.47082 -13.60075,-7.60597 -38.8762,-17.96019 -51.83937,-21.23626 L 586,369.92291 v -10.46145 c 0,-12.06599 -1.26059,-11.15336 12.5,-9.04972 37.0338,5.66153 73.05986,17.31436 108.53757,35.1071 l 10.82506,5.42897 8.09978,15.7761 c 19.59819,38.17174 37.50753,81.57352 49.06158,118.89662 16.18461,52.28121 25.63706,99.32572 31.92296,158.87947 3.0477,28.87443 3.11642,27.24172 -1.30757,31.06596 -12.53555,10.83612 -42.88557,29.85676 -67.66316,42.40512 -22.82303,11.55849 -72.56076,30.91146 -74.36735,28.93636 -0.20498,-0.22409 -4.77758,-7.38244 -10.16135,-15.90744 -5.38376,-8.525 -12.63426,-20 -16.11222,-25.5 -3.47795,-5.5 -6.3262,-10.5276 -6.32943,-11.17245 -0.003,-0.64484 1.68163,-1.71697 3.74413,-2.38249 12.05359,-3.88944 30.61869,-12.08817 43.25,-19.10009 16.74239,-9.29407 21,-12.26927 21,-14.67471 0,-1.63828 -4.61044,-13.26722 -6.30591,-15.90543 -0.58418,-0.909 -2.95915,-0.0301 -8.99394,3.32821 -42.39629,23.5935 -88.36568,35.89728 -147.72894,39.53988 -21.54666,1.32212 -53.65729,0.21404 -76.97121,-2.65616 -43.47355,-5.35206 -81.86682,-17.74549 -114.53654,-36.97264 -5.22888,-3.07737 -9.89415,-5.35598 -10.36725,-5.06358 -1.49182,0.922 -7.34143,16.47805 -6.76306,17.98525 1.47142,3.83447 33.78992,21.39026 53.58817,29.10972 8.29327,3.2336 15.07868,6.30891 15.07868,6.83402 0,1.18379 -1.97955,4.64465 -18.23501,31.88047 -7.13972,11.9625 -13.49514,21.71567 -14.12315,21.67372 -0.62801,-0.042 -6.09184,-1.78529 -12.14184,-3.87407 z M 615.41244,636.50088 C 640.4034,631.20656 657,610.65379 657,585 c 0,-24.57241 -15.94516,-45.32273 -39.5523,-51.47161 -14.10526,-3.67395 -28.75877,-0.25536 -42.06624,9.81385 -14.25386,10.78531 -22.45176,31.83145 -19.4711,49.98737 1.63644,9.96796 7.91625,22.62744 14.48092,29.1921 8.33306,8.33306 23.4829,14.86123 35.60872,15.34402 1.375,0.0548 5.6106,-0.55943 9.41244,-1.36485 z m -183.32647,-0.91451 c 26.70102,-8.10455 42.22033,-32.62925 37.53095,-59.30901 -3.43347,-19.5344 -14.6673,-33.56191 -32.76801,-40.91688 -17.27467,-7.01933 -38.14386,-2.31878 -52.01911,11.71672 -32.66871,33.04599 -10.84301,89.61383 34.6702,89.8582 4.4,0.0236 10.06369,-0.58344 12.58597,-1.34903 z m 375.13416,-78.82113 c -0.58423,-0.70396 -2.21585,-5.77662 -3.62581,-11.27258 C 802.18435,539.9967 800.12727,532.575 799.02301,529 c -1.10425,-3.575 -2.00308,-7.175 -1.9974,-8 0.006,-0.825 2.13974,-2.88645 4.74236,-4.581 11.90058,-7.74839 53.05907,-32.419 54.0853,-32.419 0.8362,0 1.14673,7.92834 1.14673,29.27749 0,24.34694 -0.25147,29.63652 -1.49323,31.40938 -1.19647,1.7082 -5.71759,3.15514 -22.75,7.2809 -11.69122,2.83196 -21.98074,5.3579 -22.86559,5.6132 -0.88485,0.2553 -2.08682,-0.11178 -2.67105,-0.81573 z M 784.57538,487.25 c -4.48559,-11.44966 -4.55393,-11.78834 -2.67355,-13.25 1.06134,-0.825 10.18011,-6.5604 20.26394,-12.74533 10.08383,-6.18494 23.2569,-14.28494 29.27349,-18 l 10.93926,-6.75467 1.21491,-7.24719 c 0.92815,-5.53657 2.06367,-8.42858 4.81074,-12.25231 1.97771,-2.75282 3.59583,-5.45748 3.59583,-6.01036 0,-0.55288 -3.44897,-6.51434 -7.66437,-13.24769 -8.5895,-13.72018 -9.30111,-16.65506 -4.94653,-20.40071 5.632,-4.84445 8.57115,-2.59548 17.84978,13.65826 8.05329,14.10725 8.02417,14.0816 14.44424,12.72647 5.31019,-1.12085 10.08377,-0.46705 16.86044,2.30926 2.95551,1.21083 3.69324,0.84703 25.5,-12.57486 12.35104,-7.60198 28.53144,-17.46413 35.95644,-21.9159 11.8949,-7.13177 13.76752,-8.62172 15.75,-12.53144 3.72344,-7.34313 3.2672,-8.83252 -8.58128,-28.01353 -5.94554,-9.625 -11.45328,-18.55753 -12.2394,-19.85008 -1.33124,-2.18881 -1.88726,-2.31333 -8.10287,-1.81459 -24.67703,1.98009 -46.92332,-10.77059 -58.24285,-33.38245 -5.63319,-11.25283 -6.94644,-17.6553 -6.34511,-30.9342 0.51569,-11.38765 2.99431,-20.60228 7.32917,-27.24724 C 880.90545,215.72073 882,213.23288 882,212.24289 882,210.05515 861.9936,176.1523 859.36814,173.89093 857.26571,172.08007 849.6484,170 845.11938,170 c -1.9349,0 -6.99899,2.42577 -14.30718,6.85334 -31.40625,19.02703 -54.44225,33.51218 -55.5622,34.93778 -0.6875,0.87513 -1.25,3.24855 -1.25,5.27428 0,4.86688 -2.37514,11.40328 -5.4878,15.10247 -1.38171,1.64207 -2.5122,3.446 -2.5122,4.00874 0,0.56273 2.475,5.39436 5.5,10.73695 3.025,5.34259 5.5,10.88264 5.5,12.31122 0,1.6728 -1.09525,3.51903 -3.07673,5.18633 -5.90871,4.97185 -8.53839,3.22868 -16.83723,-11.16111 -5.78332,-10.028 -5.88079,-10.08589 -13.67654,-8.12289 -3.65073,0.91926 -5.77042,0.81253 -11.49482,-0.57879 l -7.01867,-1.70589 -10.698,6.21742 c -5.88391,3.41958 -17.03298,10.17539 -24.77573,15.01292 -7.74274,4.83752 -23.71774,14.59088 -35.5,21.67412 -11.78225,7.08324 -30.87228,18.7442 -42.42228,25.91325 -17.96032,11.14791 -40.94128,25.25473 -69.97466,42.95383 l -6.97465,4.25184 -21.52535,-0.55822 c -11.83894,-0.30702 -21.91115,-0.91014 -22.3827,-1.34026 -0.47155,-0.43013 0.20345,-1.3387 1.5,-2.01906 1.29655,-0.68036 5.5107,-3.34288 9.36478,-5.91672 3.85409,-2.57384 17.12909,-10.90383 29.5,-18.5111 12.37092,-7.60726 30.59258,-18.87451 40.49258,-25.03833 9.9,-6.16382 26.775,-16.59704 37.5,-23.18493 10.725,-6.5879 30.3,-18.62327 43.5,-26.74527 13.2,-8.122 31.875,-19.60806 41.5,-25.52458 9.625,-5.91652 19.87571,-12.24354 22.77935,-14.06005 l 5.27935,-3.30273 3.22065,3.0166 c 5.54165,5.19054 7.89925,6.31904 13.19316,6.3151 5.97229,-0.004 10.64745,-2.50462 13.53289,-7.23712 2.38545,-3.91244 2.61579,-11.04444 0.48844,-15.12345 C 751.67223,198.06032 751,196.40653 751,195.96059 c 0,-0.44594 3.2625,-2.81184 7.25,-5.25754 3.9875,-2.44571 12.2,-7.51099 18.25,-11.25617 6.05,-3.74519 17.975,-11.07084 26.5,-16.27923 8.525,-5.20839 20.17652,-12.32681 25.89226,-15.81872 C 834.60801,143.85702 840.08803,141 841.0701,141 c 0.98207,0 5.98055,1.12386 11.10774,2.49748 5.12719,1.37361 11.58453,2.49861 14.34965,2.5 6.5263,0.003 8.52116,1.5123 13.6111,10.29619 4.48471,7.73943 13.65794,22.69384 22.82286,37.20633 3.12602,4.95 7.32655,11.94684 9.33451,15.54852 l 3.65083,6.54853 -6.33564,6.52534 c -8.01723,8.25726 -10.74054,14.84496 -10.7162,25.92251 0.0319,14.50323 6.41042,25.02776 18.89004,31.16835 6.07233,2.98789 7.49969,3.28463 15.69736,3.26348 7.59173,-0.0196 9.90693,-0.43655 14.64155,-2.63695 3.09315,-1.43752 6.05711,-2.32705 6.58657,-1.97673 0.52946,0.35032 2.25051,2.88695 3.82455,5.63695 1.57404,2.75 9.44782,15.575 17.49729,28.5 8.04947,12.925 16.15741,26.25689 18.01765,29.62641 l 3.38224,6.12642 -2.87039,8.37358 c -1.57872,4.60548 -4.15396,11.97674 -5.72275,16.38058 -3.27589,9.19596 0.19686,6.44271 -35.33906,28.01727 -11,6.67832 -28.2735,17.1674 -38.38556,23.30907 C 905.00238,429.975 896.29643,435 895.76789,435 c -0.52854,0 -2.95954,-1.75919 -5.40221,-3.90932 -5.79139,-5.09779 -12.5174,-6.88978 -17.71254,-4.71911 -6.66593,2.7852 -9.98142,11.74451 -7.26447,19.63049 0.82686,2.39998 1.27288,4.73655 0.99116,5.19238 -0.28172,0.45584 -3.06993,2.47134 -6.19603,4.47889 -16.27138,10.44936 -28.88661,18.33148 -39.6838,24.79485 -6.6,3.95087 -15.93339,9.73679 -20.74086,12.85761 -4.80748,3.12081 -9.15479,5.67421 -9.66069,5.67421 -0.5059,0 -2.99128,-5.2875 -5.52307,-11.75 z M 739.51533,383.29544 C 736.76945,378.9691 732.86165,375.00467 728.75,372.3741 726.6875,371.05455 725,369.64273 725,369.23673 725,368.34725 755.35243,349 756.74786,349 c 1.47236,0 12.54612,18.79152 11.96546,20.30468 -0.46184,1.20355 -23.77402,15.81057 -26.31854,16.49076 -0.60786,0.16249 -1.90362,-0.96251 -2.87945,-2.5 z M 823.281,361.25 C 818.75906,356.25317 807,335.78021 807,332.90416 c 0,-1.78952 0.92586,-3.48728 2.63486,-4.83158 5.61189,-4.41432 8.60575,-2.17013 18.18623,13.63232 8.11042,13.37768 8.88178,16.81046 4.54405,20.22252 -3.55688,2.79784 -6.11155,2.60733 -9.08414,-0.67742 z M 675.73119,347.90937 c -0.97285,-0.56639 -6.89317,-2.69021 -13.15626,-4.71959 -6.26309,-2.02938 -11.4452,-4.05299 -11.5158,-4.4969 -0.0706,-0.44392 6.97472,-5.13633 15.65626,-10.42757 33.13021,-20.19227 56.81571,-34.41266 57.60581,-34.58558 0.83857,-0.18353 12.6788,17.86414 12.6788,19.32588 0,1.34885 -56.56525,36.03786 -58.64426,35.96398 -0.47066,-0.0167 -1.65171,-0.49382 -2.62455,-1.06022 z M 792.68753,311.75 C 788.02555,305.47418 778,287.29126 778,285.11184 778,281.9181 782.33339,278 785.86565,278 c 3.63591,0 5.65258,2.27621 14.03909,15.84587 7.21124,11.66803 7.90505,15.20066 3.69641,18.82078 -3.95479,3.40177 -7.95529,3.06576 -10.91362,-0.91665 z"
         id="path55" />
      <path
         style="fill:#d28d5d"
         d="m 413,880.33386 c -5.55004,-0.87418 -6.80931,-1.3923 -7.47424,-3.07523 -1.22899,-3.11058 -10.24494,-35.27546 -14.368,-51.25863 -2.19914,-8.525 -4.94972,-18.04235 -6.11241,-21.14968 l -2.11398,-5.64967 6.87672,-11.35033 C 393.59028,781.60765 401.33047,768.625 407.00852,759 c 5.67805,-9.625 11.03647,-18.22699 11.9076,-19.11553 1.45748,-1.4866 2.94622,-1.39386 18.65511,1.16212 30.34552,4.93748 50.13027,6.26675 84.42877,5.67245 31.37282,-0.5436 46.013,-1.90533 72.77546,-6.7691 8.01291,-1.45625 11.74957,-1.75909 12.63528,-1.02402 2.9986,2.48862 20.75459,31.20084 20.19569,32.65732 -1.58673,4.13495 -52.58433,24.70123 -72.08107,29.06882 -3.86395,0.86558 -7.76473,2.22416 -8.6684,3.01906 -0.90368,0.7949 -2.39055,4.45658 -3.30415,8.13707 -0.91361,3.6805 -4.07582,14.79181 -7.02713,24.69181 -2.95131,9.9 -6.58446,22.58801 -8.07365,28.19559 -1.4892,5.60757 -3.54351,11.57007 -4.56513,13.25 L 522.0294,881 468.7647,880.86382 C 439.46911,880.78892 414.375,880.55044 413,880.33386 Z m 283.25,-76.3229 c -1.7875,-1.08986 -3.25,-2.38555 -3.25,-2.87932 0,-0.7118 16.81184,-7.69575 25.19907,-10.46815 2.93406,-0.96986 0.95168,1.51059 -6.86235,8.58651 -8.07378,7.31112 -9.93884,7.89968 -15.08672,4.76096 z M 214.70445,783.83133 c -35.53039,-35.93599 -67.73516,-70.10549 -68.33791,-72.50704 -0.94017,-3.74594 -2.05642,-1.73547 31.81182,-57.29614 4.8519,-7.95952 8.82164,-15.05519 8.82164,-15.76817 0,-0.71297 -2.1977,-5.67574 -4.88378,-11.02838 C 170.74884,604.57945 163.78624,586.76699 155.83649,560 c -1.30805,-4.40423 -1.48547,-4.54875 -8.33649,-6.79066 -3.85,-1.25987 -15.55,-4.53757 -26,-7.28378 -29.806714,-7.83308 -42.456146,-11.9751 -43.706598,-14.31159 -1.298095,-2.42551 -1.290132,-112.43431 0.0085,-117.09209 0.645468,-2.31513 1.594765,-3.14726 4.264217,-3.73791 1.888648,-0.41789 18.283911,-3.95214 36.433901,-7.85389 18.15,-3.90174 33.81716,-7.61968 34.8159,-8.26208 1.15157,-0.7407 3.95417,-7.63507 7.66067,-18.84521 5.87022,-17.75419 14.97314,-37.5373 24.4736,-53.18775 2.50241,-4.12231 4.54983,-8.19041 4.54983,-9.04023 0,-0.84982 -4.35005,-8.6438 -9.66678,-17.31997 C 156.28028,257.02376 149,244.63934 149,242.97416 149,240.28098 228.75132,162 231.49508,162 c 2.01174,0 11.13084,5.05375 53.81611,29.82456 8.69616,5.04649 16.46339,9.17544 17.26053,9.17544 0.79713,0 9.43209,-3.9743 19.1888,-8.83177 20.44224,-10.17736 28.60248,-13.54839 48.43492,-20.00864 L 384.5,167.5 389.12422,149 c 11.22843,-44.92135 14.93957,-58.492391 16.39286,-59.946167 1.3604,-1.360848 8.67781,-1.596 58.91661,-1.893343 40.54746,-0.239984 57.96823,-0.01576 59.42689,0.764895 1.3619,0.728869 2.72827,3.394581 4.0183,7.83951 2.06784,7.124955 16.25615,58.848665 18.06782,65.866525 1.21634,4.71173 -0.14428,4.01399 21.0533,10.79638 19.18369,6.13802 26.04018,8.96651 47.81897,19.72661 l 18.31896,9.05072 6.18104,-3.25937 c 3.39956,-1.79265 12.25603,-6.71989 19.68103,-10.94941 30.72877,-17.50409 42.03419,-23.20459 44.69548,-22.53664 1.40059,0.35152 7.46311,5.43367 13.47227,11.29365 8.96485,8.74231 10.87248,11.11147 10.62899,13.20058 -0.26939,2.31141 -0.80362,2.59214 -5.79674,3.04606 -4.77899,0.43445 -7.79411,1.8702 -23,10.95223 -21.58785,12.89377 -34.66945,20.89722 -51.5,31.5082 -7.15,4.50778 -22.225,13.74929 -33.5,20.53668 -11.275,6.78739 -27.18266,16.58865 -35.35036,21.78056 l -14.85036,9.43985 -10.72748,-5.09404 C 524.71559,267.6583 492.21387,261.15969 459,262.31414 c -40.37097,1.40323 -76.64434,12.73274 -108,33.73239 -27.59168,18.47882 -45.22948,36.06551 -63.28326,63.09987 -21.11732,31.62182 -31.57536,61.52895 -35.61656,101.8536 -0.65401,6.52596 -1.79048,11.37834 -3.63023,15.5 -9.01747,20.20212 -27.47094,83.15092 -34.43622,117.46942 -3.7054,18.25682 -10.41977,60.25415 -12.47523,78.03058 -2.32355,20.09496 -4.54773,48.86448 -3.90685,50.53459 1.36919,3.56806 40.29788,30.1561 67.76195,46.28096 5.18796,3.04598 5.70801,3.62236 4.23814,4.69715 -2.44627,1.78876 -38.74482,20.14402 -41.44729,20.95885 -1.96672,0.59299 -3.9005,-0.93115 -13.5,-10.64022 z M 352,783.10118 c -12.58689,-4.07812 -43.47305,-16.71406 -51.5,-21.06934 -3.85,-2.08894 -12.85,-6.84998 -20,-10.58009 -20.94484,-10.92677 -40.36627,-23.40188 -53.25,-34.20445 l -5.25,-4.40195 0.0129,-6.17267 c 0.0272,-13.05332 4.29173,-50.97971 8.56494,-76.17268 2.22521,-13.11887 12.09875,-60.36039 15.04348,-71.97794 3.63422,-14.33773 19.98172,-64.09764 27.60356,-84.02206 3.57673,-9.35 9.09748,-22.4 12.26833,-29 3.17085,-6.6 7.30475,-15.58041 9.18644,-19.95646 6.24967,-14.53423 17.25531,-33.5273 20.67654,-35.68271 11.78102,-7.42216 46.97158,-22.26245 69.64383,-29.36966 18.59871,-5.83025 48.51166,-11.66001 52.32332,-10.19734 1.39684,0.53601 1.67668,2.1437 1.67668,9.63244 v 8.98904 l -7.25,2.10701 c -3.9875,1.15886 -8.11468,2.35773 -9.17151,2.66417 -4.7274,1.37074 -37.29917,16.71243 -42.40741,19.97439 C 367.84791,401.53007 356,411.35074 356,413.69617 c 0,2.03641 2.55605,1.55673 8.9774,-1.68476 9.10185,-4.5946 42.15433,-16.75788 52.90998,-19.47082 28.36955,-7.15577 41.70628,-9.3154 71.12879,-11.51797 15.98489,-1.19663 56.52427,0.14074 74.00015,2.44123 31.72022,4.17558 70.75428,15.1366 94.85115,26.63481 12.98931,6.19806 15.13253,6.82715 15.13253,4.44181 0,-2.25644 -4.3096,-5.81037 -19.5,-16.08072 -17.34648,-11.72809 -43.30837,-23.59236 -62.25,-28.44748 l -4.25,-1.08936 0.0153,-8.21145 c 0.008,-4.5163 0.36042,-8.75445 0.78222,-9.4181 0.89939,-1.41508 10.91286,-0.0242 34.35051,4.77139 23.93784,4.89791 53.23872,15.21692 78.85196,27.76962 l 16.5,8.08643 11.26092,22.7896 c 6.19351,12.53428 11.25601,23.11156 11.25,23.50507 -0.006,0.39351 2.96437,7.14351 6.60083,15 3.63645,7.85649 8.98606,20.58453 11.888,28.28453 2.90194,7.7 6.26596,16.475 7.47561,19.5 1.20966,3.025 3.68602,10.675 5.50304,17 1.81703,6.325 5.35767,18.08385 7.86811,26.13079 11.73638,37.61972 24.45595,109.46401 28.22924,159.44793 l 0.67572,8.95114 -5.87574,4.20305 c -18.69971,13.37636 -25.45202,18.03287 -32.37816,22.32861 -12.96789,8.04293 -45.10446,24.75192 -53.53365,27.8341 -4.38015,1.60163 -12.01528,4.69754 -16.96694,6.87979 -7.93648,3.4977 -12.76061,5.2132 -30.15813,10.72446 -3.87802,1.2285 -4.29532,1.17128 -6.13303,-0.84084 -1.08453,-1.18747 -2.76262,-3.73403 -3.72909,-5.65903 -0.96647,-1.925 -5.23774,-8.675 -9.49172,-15 -13.7127,-20.38865 -18.23155,-28.22948 -16.78513,-29.12455 0.71507,-0.4425 6.47512,-2.63938 12.80012,-4.88198 12.84326,-4.5537 17.3917,-6.68288 34,-15.91577 14.02688,-7.79782 18.86075,-10.94758 19.95871,-13.00512 0.99875,-1.87164 -5.39502,-18.64229 -7.40076,-19.41197 -0.71267,-0.27348 -4.61726,1.27315 -8.67686,3.43696 -19.65082,10.47408 -28.23246,14.43097 -42.21498,19.4648 -18.26313,6.57489 -24.85262,8.45791 -43.29825,12.37295 -42.676,9.05788 -91.808,11.0433 -138.45143,5.5948 C 444.3613,719.7131 413.60096,713.4701 403.0237,709.98339 376.38438,701.20194 369.49607,698.118 339.21424,681.41547 334.02129,678.5512 333.90755,678.53512 332.73675,680.5 330.59338,684.09711 326,696.08896 326,698.0875 c 0,3.93949 31.74058,21.78185 53.93347,30.31768 7.86956,3.02679 14.51908,5.71404 14.77671,5.97167 0.53541,0.53541 -5.13416,10.56032 -14.20836,25.12315 -3.42709,5.5 -8.40281,13.7125 -11.05716,18.25 -3.63967,6.22188 -5.33232,8.2322 -6.88537,8.17757 C 361.42668,785.88774 356.675,784.61586 352,783.10118 Z M 616.5,637.4956 c 19.20535,-4.03221 32.828,-16.54803 39.41665,-36.21405 2.32892,-6.95143 2.82186,-21.34752 1.00264,-29.28155 -1.64162,-7.1595 -7.45871,-18.27141 -12.50097,-23.87963 C 635.53482,538.23978 619.28866,531 606,531 c -18.22602,0 -36.81512,11.70662 -45.02131,28.35249 -7.71594,15.65142 -8.76772,30.56393 -3.17206,44.97455 5.61177,14.4521 12.69744,22.38468 25.61715,28.679 12.0439,5.86764 20.8314,7.0604 33.07622,4.48956 z m -179,-2.78235 c 14.73246,-5.99079 22.64652,-13.39934 29.07007,-27.21325 6.20006,-13.3333 6.75344,-25.69959 1.81124,-40.47545 C 464.0727,554.14293 457.13324,545.49948 445.5,538.5247 c -20.80053,-12.47109 -45.3185,-9.06082 -62.0014,8.62393 -20.44692,21.67481 -20.65541,53.64452 -0.49042,75.20096 9.93516,10.62072 21.60884,15.46631 37.49182,15.56235 7.92129,0.0479 9.95886,-0.33549 17,-3.19869 z m 369.72013,-77.94801 c -0.58423,-0.70396 -2.21585,-5.77662 -3.62581,-11.27258 C 802.18435,539.9967 800.12727,532.575 799.02301,529 c -1.10425,-3.575 -2.00308,-7.175 -1.9974,-8 0.006,-0.825 2.13974,-2.88645 4.74236,-4.581 11.90058,-7.74839 53.05907,-32.419 54.0853,-32.419 0.8362,0 1.14673,7.92834 1.14673,29.27749 0,24.34694 -0.25147,29.63652 -1.49323,31.40938 -1.19647,1.7082 -5.71759,3.15514 -22.75,7.2809 -11.69122,2.83196 -21.98074,5.3579 -22.86559,5.6132 -0.88485,0.2553 -2.08682,-0.11178 -2.67105,-0.81573 z m -17.59095,-59.55622 c -1.42748,-2.30971 -7.72884,-20.41004 -7.42392,-21.32481 0.1964,-0.5892 4.45757,-3.61668 9.46927,-6.72774 15.69589,-9.74337 28.09631,-17.40064 40.27305,-24.86863 l 11.7596,-7.21216 0.63236,-6.05015 c 0.67989,-6.50484 3.17182,-12.37171 6.55405,-15.43052 3.20907,-2.9022 2.60502,-5.50223 -3.52959,-15.19242 -9.34065,-14.75444 -9.51652,-15.11058 -9.18133,-18.59234 0.23588,-2.45026 1.02731,-3.63495 3.08342,-4.61557 4.24252,-2.02339 6.38272,-0.65845 10.37753,6.61836 6.37306,11.60897 12.40298,20.99086 13.84748,21.54517 0.76687,0.29427 2.87962,0.10906 4.695,-0.41158 5.05379,-1.44941 8.74729,-1.16585 15.44334,1.18562 l 6.12944,2.15249 5.87056,-3.33849 c 3.22881,-1.83616 14.42056,-8.73213 24.87056,-15.32436 10.45,-6.59224 24.175,-14.96125 30.5,-18.59781 10.04582,-5.77585 11.78451,-7.17058 13.75,-11.02989 4.27797,-8.39998 4.06616,-8.99934 -13.07343,-36.99419 -9.92066,-16.20383 -8.07178,-14.87435 -20.51684,-14.75319 -17.58712,0.17123 -29.44631,-4.60688 -41.62625,-16.77135 -12.31834,-12.30268 -17.56887,-23.67607 -18.3113,-39.66482 -0.55233,-11.89483 1.47332,-21.9978 6.33336,-31.58776 3.44489,-6.79755 4.15575,-10.04093 2.5803,-11.77288 -0.47528,-0.5225 -2.47612,-3.92924 -4.44631,-7.57053 -1.97018,-3.64129 -6.66933,-11.51629 -10.44255,-17.5 -7.52609,-11.93513 -8.8945,-12.90828 -19.79379,-14.07643 -4.75832,-0.50998 -5.64951,-0.19874 -15.59012,5.44473 -5.79881,3.2921 -14.55275,8.67314 -19.45318,11.95787 -4.90044,3.28473 -15.54806,9.90653 -23.66137,14.71512 -10.5329,6.24261 -14.87844,9.36293 -15.19541,10.91106 -0.24415,1.1925 -0.73635,4.40762 -1.09376,7.14471 -0.6955,5.3262 -3.32285,11.33537 -5.88626,13.46281 -2.39448,1.98725 -1.98832,3.61716 3.42691,13.7521 2.75,5.14679 5,10.62698 5,12.17819 0,3.45581 -2.75665,6.13037 -6.31853,6.13037 -2.77837,0 -4.57616,-2.293 -12.7405,-16.25 -3.70142,-6.3276 -4.23679,-6.52329 -12.81396,-4.68382 -3.9867,0.855 -6.27608,0.73899 -11.55789,-0.58563 l -6.58644,-1.65182 -7.74134,4.24784 c -8.01842,4.39989 -25.13002,14.78679 -43.13119,26.18105 -5.71442,3.61707 -14.17607,8.75132 -18.80368,11.40944 -4.6276,2.65812 -16.82717,10.0791 -27.11015,16.49108 -20.77555,12.95464 -36.48141,22.55061 -55.19632,33.72384 -6.875,4.10453 -16.91757,10.31641 -22.31682,13.80417 -17.33897,11.20047 -14.7848,10.56953 -37.10831,9.16672 l -19.36772,-1.21706 8.46693,-5.86937 c 4.65682,-3.22815 16.42271,-10.64498 26.14643,-16.48185 16.49928,-9.90405 24.31352,-14.76119 36.67949,-22.79908 11.10621,-7.21904 24.56103,-15.4969 34.5,-21.22554 5.775,-3.32861 15.45,-9.22675 21.5,-13.10698 11.85569,-7.60377 43.70076,-27.24366 57.5,-35.46211 4.675,-2.7843 16.26304,-9.9758 25.75119,-15.98111 l 17.25119,-10.91873 2.7613,2.95598 c 4.58672,4.91009 8.75144,6.52843 15.53744,6.03758 5.4639,-0.39522 6.30783,-0.78356 9.77082,-4.49607 5.14782,-5.51873 6.38154,-10.39849 4.35461,-17.22391 -0.85944,-2.89404 -1.4195,-5.39174 -1.24458,-5.55045 1.04039,-0.94399 34.46806,-21.89142 40.08993,-25.12233 3.72454,-2.14051 11.59954,-6.90534 17.5,-10.5885 26.32503,-16.43253 29.28932,-18.04356 32.06264,-17.42543 1.466,0.32675 5.99442,1.49629 10.06314,2.59898 4.06872,1.10269 10.36462,2.23112 13.99089,2.50763 7.74034,0.5902 7.15298,0.004 16.56124,16.51548 3.60409,6.325 8.99809,15.325 11.98666,20 C 906.15642,200.76916 914,213.89795 914,215.0721 c 0,0.65732 -2.26007,3.41983 -5.02237,6.13891 -9.06932,8.92739 -12.86958,20.4742 -10.87371,33.03899 2.36976,14.91861 10.47079,23.95412 25.35654,28.28153 7.27933,2.11616 16.71485,1.55267 24.34205,-1.45369 2.89934,-1.14281 5.61534,-2.07784 6.03555,-2.07784 0.42021,0 2.73782,3.4875 5.15025,7.75 2.41243,4.2625 9.88645,16.35987 16.60893,26.88305 6.72247,10.52317 14.08546,22.52712 16.36219,26.67544 l 4.13951,7.5424 -4.59738,13.32456 c -2.52856,7.3285 -5.03784,14.45926 -5.57617,15.84612 -0.98574,2.53947 -20.16963,15.46537 -37.42539,25.21682 -8.09057,4.57208 -26.55616,15.80593 -42.94702,26.12752 -4.92086,3.09875 -9.44917,5.63409 -10.06291,5.63409 -0.61374,0 -2.43758,-1.39017 -4.05298,-3.08928 -4.1486,-4.36356 -7.63616,-5.92867 -13.50556,-6.06091 -6.36738,-0.14345 -9.54152,1.97751 -12.85341,8.58867 -2.28457,4.56041 -2.35152,5.17521 -1.18083,10.84313 1.0143,4.91072 1.00002,6.23602 -0.0781,7.25318 -2.11739,1.99763 -32.27069,21.15934 -44.8894,28.52615 -6.36362,3.71508 -14.46362,8.76006 -18,11.21106 -8.02125,5.55938 -10.67298,6.95253 -11.3006,5.93702 z M 739.05919,380.58604 c -1.71386,-2.49102 -5.17474,-5.94549 -7.69084,-7.67662 -4.43895,-3.05408 -4.51972,-3.20109 -2.72154,-4.95359 2.91604,-2.84194 27.44241,-18.01872 28.28126,-17.50029 0.41435,0.25609 3.15422,4.38061 6.08861,9.16561 l 5.33525,8.70001 -2.42596,1.9071 c -1.33429,1.0489 -6.02597,4.04124 -10.42597,6.64963 -4.4,2.6084 -9.19806,5.52885 -10.66235,6.4899 l -2.66234,1.74736 z m 84.02892,-21.4623 C 818.2509,352.33051 808,334.59991 808,333.02641 c 0,-4.35259 7.22594,-6.66059 10.25787,-3.27641 3.38872,3.78242 15.74213,24.83377 15.74213,26.82604 0,5.50526 -7.55062,7.26817 -10.91189,2.5477 z m -157.97955,-16.1748 c -6.2653,-2.14417 -11.57033,-4.07737 -11.78896,-4.29601 -0.43017,-0.43016 23.25013,-15.30004 44.1804,-27.74277 7.15,-4.25056 16.07006,-9.62666 19.82236,-11.94687 3.75229,-2.32022 7.17512,-3.82364 7.60629,-3.34093 2.03577,2.27912 10.07027,15.58112 10.06205,16.65882 -0.0115,1.51224 -19.01587,13.97102 -36.9907,24.25022 -7.425,4.2461 -14.38763,8.33858 -15.47251,9.09439 -2.82462,1.96786 -4.68033,1.68269 -17.41893,-2.67685 z M 794.06305,311.8373 C 791.35906,308.93491 779,286.67314 779,284.70498 779,282.79961 783.63583,279 785.96054,279 c 2.15437,0 4.53545,2.65706 10.75356,12 8.93355,13.42298 10.06914,17.21676 6.2859,21 -2.61258,2.61258 -6.41589,2.54334 -8.93695,-0.1627 z"
         id="path54" />
      <path
         style="fill:#d27c43"
         d="m 418.55601,879.25216 c -5.46919,-0.1811 -10.50277,-0.79301 -11.18572,-1.35981 -0.68295,-0.5668 -1.53302,-2.46195 -1.88904,-4.21145 -0.35601,-1.74949 -2.84211,-10.6059 -5.52465,-19.6809 -2.68255,-9.075 -5.81403,-20.55 -6.95886,-25.5 -1.14482,-4.95 -3.41265,-13.32488 -5.03962,-18.61084 C 386.33116,804.60319 385,799.74408 385,799.09112 c 0,-0.65296 1.64836,-3.75308 3.66302,-6.88916 2.01466,-3.13608 7.1263,-11.77849 11.35921,-19.20537 6.85927,-12.03497 15.38832,-25.93854 19.29845,-31.45922 1.37564,-1.94225 1.57064,-1.93408 18.7847,0.78729 27.05275,4.27676 46.65084,5.78629 74.91543,5.77032 31.33184,-0.0177 54.75873,-2.02205 82.11882,-7.02589 5.68675,-1.04003 10.67262,-1.68513 11.0797,-1.43354 0.40708,0.25159 4.40819,5.94902 8.89134,12.66095 4.48316,6.71192 8.99227,13.27669 10.02026,14.58836 1.02799,1.31167 1.86907,2.92867 1.86907,3.59333 0,3.45485 -51.13087,24.32933 -70.35327,28.72214 -5.0307,1.14964 -9.88826,2.72802 -10.79457,3.5075 -0.90632,0.77949 -2.61273,5.39959 -3.79202,10.2669 -1.1793,4.86731 -3.95063,14.62667 -6.15852,21.68746 -2.20788,7.0608 -5.14504,17.11281 -6.52702,22.33781 -4.41484,16.69173 -5.48349,19.96603 -7.01679,21.49934 -1.2971,1.2971 -7.76476,1.47227 -47.67924,1.29137 -25.39821,-0.11511 -50.65337,-0.35746 -56.12256,-0.53855 z m 279.08371,-75.88192 c -1.57316,-0.85232 -2.47316,-1.9257 -2,-2.38528 1.32027,-1.28239 16.4898,-7.10845 17.57054,-6.74821 1.27534,0.42512 -9.72747,10.77435 -11.4004,10.72321 -0.72042,-0.022 -2.59699,-0.73739 -4.17014,-1.58972 z M 210.59287,777.70111 C 187.72366,754.51974 152.40609,717.8383 150.07122,714.84227 148.93205,713.38052 148,711.01909 148,709.59465 c 0,-3.15789 7.0998,-16.10519 19.79291,-36.09465 10.52053,-16.56803 20.17967,-33.37456 20.19633,-35.14084 0.006,-0.62746 -3.17344,-7.82746 -7.06525,-16 C 168.96235,597.24049 163.87863,583.86851 156.07593,557 c -0.90287,-3.10903 -5.97156,-4.96215 -31.33934,-11.45769 -27.852969,-7.13189 -42.937832,-11.74355 -44.93005,-13.73577 -1.701666,-1.70167 -1.800753,-5.07199 -1.70686,-58.05654 0.05482,-30.9375 0.410353,-57.375 0.790064,-58.75 0.607968,-2.20156 1.640615,-2.69205 8.65032,-4.10876 24.852406,-5.02284 65.221106,-14.23821 66.804706,-15.25018 1.19925,-0.76636 3.88259,-7.41914 7.66852,-19.01249 6.01404,-18.41631 11.1999,-29.86686 22.45181,-49.57428 3.59419,-6.29513 6.5349,-12.27933 6.5349,-13.2982 0,-2.09867 -8.67703,-17.37397 -18.32286,-32.25609 -8.4354,-13.01461 -17.03815,-27.3055 -20.23566,-33.61547 l -2.54669,-5.02567 3.46811,-3.67943 C 176.55295,214.57638 229.72235,163 231.89526,163 c 0.90929,0 11.31733,5.69618 23.12899,12.65817 C 286.39324,194.14758 300.633,202 302.79316,202 c 1.05135,0 10.86549,-4.50083 21.8092,-10.00184 15.55347,-7.81819 23.71834,-11.21989 37.39764,-15.58085 25.9365,-8.26856 24.07594,-7.17774 25.44358,-14.91731 1.35072,-7.64385 6.66016,-29.06721 10.03729,-40.5 1.86834,-6.325 4.35292,-15.85028 5.5213,-21.16728 1.47034,-6.691162 2.6436,-9.890326 3.81107,-10.391794 0.92772,-0.398482 27.40251,-0.941226 58.83287,-1.206097 l 57.1461,-0.481583 1.5087,2.373377 c 1.35016,2.123971 8.37228,26.638807 17.72322,61.873377 1.82457,6.875 3.68116,13.24036 4.12576,14.14525 0.44633,0.90842 3.16895,2.20578 6.07923,2.89684 14.01039,3.3268 37.84591,12.48866 58.24396,22.38772 11.97955,5.8136 22.2123,10.57019 22.73944,10.57019 1.55566,0 19.77285,-9.59643 26.42352,-13.91934 C 669.22167,181.85003 700.01739,166 702.53753,166 c 2.9232,0 25.15794,21.06569 24.0784,22.81242 -0.40368,0.65317 -2.07186,1.18758 -3.70707,1.18758 -3.79858,0 -8.64681,2.03561 -14.59452,6.12773 -2.58926,1.78147 -9.68174,6.04381 -15.76105,9.47187 -12.73473,7.18099 -21.75457,12.70592 -38.86603,23.80665 -12.09122,7.84394 -35.66294,22.12672 -47.18726,28.59211 -3.3,1.85137 -13.425,8.16307 -22.5,14.02599 -9.075,5.86293 -17.43553,11.15555 -18.57895,11.7614 -1.7325,0.91796 -3.78399,0.28004 -12.31016,-3.82792 -12.85898,-6.19554 -23.93126,-9.90645 -41.11089,-13.77844 -20.14124,-4.5395 -30.46283,-5.51553 -51.80112,-4.89846 -20.6552,0.59732 -29.18067,1.87081 -52.01409,7.76964 -27.90202,7.20825 -44.68264,15.7136 -72.63888,36.81741 -20.31673,15.33685 -32.44627,28.38887 -47.82287,51.45994 -16.456,24.69059 -24.44661,41.93229 -29.78513,64.26872 -4.12201,17.24656 -4.75978,20.77737 -6.39489,35.40336 -1.08776,9.73006 -2.06874,13.99502 -4.42689,19.24664 -5.684,12.65831 -11.65083,31.45779 -23.72619,74.75336 -8.38506,30.06418 -10.89391,41.79623 -16.78687,78.5 -6.16739,38.413 -6.99601,45.03248 -9.10992,72.77477 -1.34237,17.61695 -1.34238,20.01759 -4e-5,22 2.62624,3.87854 20.01267,15.8451 59.20204,40.74698 5.60733,3.56304 10.21983,6.99519 10.25,7.62702 C 267.00597,773.92261 229.82967,793 227.28649,793 c -0.88041,0 -8.39254,-6.8845 -16.69362,-15.29889 z M 352,783.10118 c -12.58689,-4.07812 -43.47305,-16.71406 -51.5,-21.06934 -3.85,-2.08894 -12.85,-6.84998 -20,-10.58009 -20.94484,-10.92677 -40.36627,-23.40188 -53.25,-34.20445 l -5.25,-4.40195 0.0129,-6.17267 c 0.0272,-13.05332 4.29173,-50.97971 8.56494,-76.17268 2.22521,-13.11887 12.09875,-60.36039 15.04348,-71.97794 3.63422,-14.33773 19.98172,-64.09764 27.60356,-84.02206 3.57673,-9.35 9.09748,-22.4 12.26833,-29 3.17085,-6.6 7.30475,-15.58041 9.18644,-19.95646 6.24967,-14.53423 17.25531,-33.5273 20.67654,-35.68271 11.78102,-7.42216 46.97158,-22.26245 69.64383,-29.36966 18.59871,-5.83025 48.51166,-11.66001 52.32332,-10.19734 1.39684,0.53601 1.67668,2.1437 1.67668,9.63244 v 8.98904 l -7.25,2.10701 c -3.9875,1.15886 -8.11468,2.35773 -9.17151,2.66417 -4.7274,1.37074 -37.29917,16.71243 -42.40741,19.97439 C 367.84791,401.53007 356,411.35074 356,413.69617 c 0,2.03641 2.55605,1.55673 8.9774,-1.68476 9.10185,-4.5946 42.15433,-16.75788 52.90998,-19.47082 28.36955,-7.15577 41.70628,-9.3154 71.12879,-11.51797 15.98489,-1.19663 56.52427,0.14074 74.00015,2.44123 31.72022,4.17558 70.75428,15.1366 94.85115,26.63481 12.98931,6.19806 15.13253,6.82715 15.13253,4.44181 0,-2.25644 -4.3096,-5.81037 -19.5,-16.08072 -17.34648,-11.72809 -43.30837,-23.59236 -62.25,-28.44748 l -4.25,-1.08936 0.0153,-8.21145 c 0.008,-4.5163 0.36042,-8.75445 0.78222,-9.4181 0.89939,-1.41508 10.91286,-0.0242 34.35051,4.77139 23.93784,4.89791 53.23872,15.21692 78.85196,27.76962 l 16.5,8.08643 11.26092,22.7896 c 6.19351,12.53428 11.25601,23.11156 11.25,23.50507 -0.006,0.39351 2.96437,7.14351 6.60083,15 3.63645,7.85649 8.98606,20.58453 11.888,28.28453 2.90194,7.7 6.26596,16.475 7.47561,19.5 1.20966,3.025 3.68602,10.675 5.50304,17 1.81703,6.325 5.35767,18.08385 7.86811,26.13079 11.73638,37.61972 24.45595,109.46401 28.22924,159.44793 l 0.67572,8.95114 -5.87574,4.20305 c -18.69971,13.37636 -25.45202,18.03287 -32.37816,22.32861 -12.96789,8.04293 -45.10446,24.75192 -53.53365,27.8341 -4.38015,1.60163 -12.01528,4.69754 -16.96694,6.87979 -7.93648,3.4977 -12.76061,5.2132 -30.15813,10.72446 -3.87802,1.2285 -4.29532,1.17128 -6.13303,-0.84084 -1.08453,-1.18747 -2.76262,-3.73403 -3.72909,-5.65903 -0.96647,-1.925 -5.23774,-8.675 -9.49172,-15 -13.7127,-20.38865 -18.23155,-28.22948 -16.78513,-29.12455 0.71507,-0.4425 6.47512,-2.63938 12.80012,-4.88198 12.84326,-4.5537 17.3917,-6.68288 34,-15.91577 14.02688,-7.79782 18.86075,-10.94758 19.95871,-13.00512 0.99875,-1.87164 -5.39502,-18.64229 -7.40076,-19.41197 -0.71267,-0.27348 -4.61726,1.27315 -8.67686,3.43696 -19.65082,10.47408 -28.23246,14.43097 -42.21498,19.4648 -18.26313,6.57489 -24.85262,8.45791 -43.29825,12.37295 -42.676,9.05788 -91.808,11.0433 -138.45143,5.5948 C 444.3613,719.7131 413.60096,713.4701 403.0237,709.98339 376.38438,701.20194 369.49607,698.118 339.21424,681.41547 334.02129,678.5512 333.90755,678.53512 332.73675,680.5 330.59338,684.09711 326,696.08896 326,698.0875 c 0,3.93949 31.74058,21.78185 53.93347,30.31768 7.86956,3.02679 14.51908,5.71404 14.77671,5.97167 0.53541,0.53541 -5.13416,10.56032 -14.20836,25.12315 -3.42709,5.5 -8.40281,13.7125 -11.05716,18.25 -3.63967,6.22188 -5.33232,8.2322 -6.88537,8.17757 C 361.42668,785.88774 356.675,784.61586 352,783.10118 Z M 616.5,637.4956 c 19.20535,-4.03221 32.828,-16.54803 39.41665,-36.21405 2.32892,-6.95143 2.82186,-21.34752 1.00264,-29.28155 -1.64162,-7.1595 -7.45871,-18.27141 -12.50097,-23.87963 C 635.53482,538.23978 619.28866,531 606,531 c -18.22602,0 -36.81512,11.70662 -45.02131,28.35249 -7.71594,15.65142 -8.76772,30.56393 -3.17206,44.97455 5.61177,14.4521 12.69744,22.38468 25.61715,28.679 12.0439,5.86764 20.8314,7.0604 33.07622,4.48956 z m -179,-2.78235 c 14.73246,-5.99079 22.64652,-13.39934 29.07007,-27.21325 6.20006,-13.3333 6.75344,-25.69959 1.81124,-40.47545 C 464.0727,554.14293 457.13324,545.49948 445.5,538.5247 c -20.80053,-12.47109 -45.3185,-9.06082 -62.0014,8.62393 -20.44692,21.67481 -20.65541,53.64452 -0.49042,75.20096 9.93516,10.62072 21.60884,15.46631 37.49182,15.56235 7.92129,0.0479 9.95886,-0.33549 17,-3.19869 z M 807.14185,553.75 c -0.44476,-1.2375 -2.55256,-9.1067 -4.684,-17.48712 -3.81974,-15.01853 -3.84724,-15.25944 -1.91659,-16.79303 3.6588,-2.90634 17.92299,-12.16624 27.45874,-17.82543 5.225,-3.10089 13.1,-7.88032 17.5,-10.62096 4.4,-2.74064 8.5625,-4.99209 9.25,-5.00322 0.96892,-0.0157 1.25,5.91063 1.25,26.35476 0,14.50625 -0.28213,27.78565 -0.62696,29.50978 -0.57336,2.8668 -1.19312,3.29781 -7.25,5.04195 -7.94314,2.28731 -37.09459,9.0934 -38.89779,9.08161 -0.70111,-0.005 -1.63865,-1.02084 -2.0834,-2.25834 z m -17.51267,-56.54098 c -1.42748,-2.30971 -7.72884,-20.41004 -7.42392,-21.32481 0.1964,-0.5892 4.45757,-3.61668 9.46927,-6.72774 15.69589,-9.74337 28.09631,-17.40064 40.27305,-24.86863 l 11.7596,-7.21216 0.63236,-6.05015 c 0.67989,-6.50484 3.17182,-12.37171 6.55405,-15.43052 3.20907,-2.9022 2.60502,-5.50223 -3.52959,-15.19242 -9.34065,-14.75444 -9.51652,-15.11058 -9.18133,-18.59234 0.23588,-2.45026 1.02731,-3.63495 3.08342,-4.61557 4.24252,-2.02339 6.38272,-0.65845 10.37753,6.61836 6.37306,11.60897 12.40298,20.99086 13.84748,21.54517 0.76687,0.29427 2.87962,0.10906 4.695,-0.41158 5.05379,-1.44941 8.74729,-1.16585 15.44334,1.18562 l 6.12944,2.15249 5.87056,-3.33849 c 3.22881,-1.83616 14.42056,-8.73213 24.87056,-15.32436 10.45,-6.59224 24.175,-14.96125 30.5,-18.59781 10.04582,-5.77585 11.78451,-7.17058 13.75,-11.02989 4.27797,-8.39998 4.06616,-8.99934 -13.07343,-36.99419 -9.92066,-16.20383 -8.07178,-14.87435 -20.51684,-14.75319 -17.58712,0.17123 -29.44631,-4.60688 -41.62625,-16.77135 -12.31834,-12.30268 -17.56887,-23.67607 -18.3113,-39.66482 -0.55233,-11.89483 1.47332,-21.9978 6.33336,-31.58776 3.44489,-6.79755 4.15575,-10.04093 2.5803,-11.77288 -0.47528,-0.5225 -2.47612,-3.92924 -4.44631,-7.57053 -1.97018,-3.64129 -6.66933,-11.51629 -10.44255,-17.5 -7.52609,-11.93513 -8.8945,-12.90828 -19.79379,-14.07643 -4.75832,-0.50998 -5.64951,-0.19874 -15.59012,5.44473 -5.79881,3.2921 -14.55275,8.67314 -19.45318,11.95787 -4.90044,3.28473 -15.54806,9.90653 -23.66137,14.71512 -10.5329,6.24261 -14.87844,9.36293 -15.19541,10.91106 -0.24415,1.1925 -0.73635,4.40762 -1.09376,7.14471 -0.6955,5.3262 -3.32285,11.33537 -5.88626,13.46281 -2.39448,1.98725 -1.98832,3.61716 3.42691,13.7521 2.75,5.14679 5,10.62698 5,12.17819 0,3.45581 -2.75665,6.13037 -6.31853,6.13037 -2.77837,0 -4.57616,-2.293 -12.7405,-16.25 -3.70142,-6.3276 -4.23679,-6.52329 -12.81396,-4.68382 -3.9867,0.855 -6.27608,0.73899 -11.55789,-0.58563 l -6.58644,-1.65182 -7.74134,4.24784 c -8.01842,4.39989 -25.13002,14.78679 -43.13119,26.18105 -5.71442,3.61707 -14.17607,8.75132 -18.80368,11.40944 -4.6276,2.65812 -16.82717,10.0791 -27.11015,16.49108 -20.77555,12.95464 -36.48141,22.55061 -55.19632,33.72384 -6.875,4.10453 -16.91757,10.31641 -22.31682,13.80417 -17.33897,11.20047 -14.7848,10.56953 -37.10831,9.16672 l -19.36772,-1.21706 8.46693,-5.86937 c 4.65682,-3.22815 16.42271,-10.64498 26.14643,-16.48185 16.49928,-9.90405 24.31352,-14.76119 36.67949,-22.79908 11.10621,-7.21904 24.56103,-15.4969 34.5,-21.22554 5.775,-3.32861 15.45,-9.22675 21.5,-13.10698 11.85569,-7.60377 43.70076,-27.24366 57.5,-35.46211 4.675,-2.7843 16.26304,-9.9758 25.75119,-15.98111 l 17.25119,-10.91873 2.7613,2.95598 c 4.58672,4.91009 8.75144,6.52843 15.53744,6.03758 5.4639,-0.39522 6.30783,-0.78356 9.77082,-4.49607 5.14782,-5.51873 6.38154,-10.39849 4.35461,-17.22391 -0.85944,-2.89404 -1.4195,-5.39174 -1.24458,-5.55045 1.04039,-0.94399 34.46806,-21.89142 40.08993,-25.12233 3.72454,-2.14051 11.59954,-6.90534 17.5,-10.5885 26.32503,-16.43253 29.28932,-18.04356 32.06264,-17.42543 1.466,0.32675 5.99442,1.49629 10.06314,2.59898 4.06872,1.10269 10.36462,2.23112 13.99089,2.50763 7.74034,0.5902 7.15298,0.004 16.56124,16.51548 3.60409,6.325 8.99809,15.325 11.98666,20 C 906.15642,200.76916 914,213.89795 914,215.0721 c 0,0.65732 -2.26007,3.41983 -5.02237,6.13891 -9.06932,8.92739 -12.86958,20.4742 -10.87371,33.03899 2.36976,14.91861 10.47079,23.95412 25.35654,28.28153 7.27933,2.11616 16.71485,1.55267 24.34205,-1.45369 2.89934,-1.14281 5.61534,-2.07784 6.03555,-2.07784 0.42021,0 2.73782,3.4875 5.15025,7.75 2.41243,4.2625 9.88645,16.35987 16.60893,26.88305 6.72247,10.52317 14.08546,22.52712 16.36219,26.67544 l 4.13951,7.5424 -4.59738,13.32456 c -2.52856,7.3285 -5.03784,14.45926 -5.57617,15.84612 -0.98574,2.53947 -20.16963,15.46537 -37.42539,25.21682 -8.09057,4.57208 -26.55616,15.80593 -42.94702,26.12752 -4.92086,3.09875 -9.44917,5.63409 -10.06291,5.63409 -0.61374,0 -2.43758,-1.39017 -4.05298,-3.08928 -4.1486,-4.36356 -7.63616,-5.92867 -13.50556,-6.06091 -6.36738,-0.14345 -9.54152,1.97751 -12.85341,8.58867 -2.28457,4.56041 -2.35152,5.17521 -1.18083,10.84313 1.0143,4.91072 1.00002,6.23602 -0.0781,7.25318 -2.11739,1.99763 -32.27069,21.15934 -44.8894,28.52615 -6.36362,3.71508 -14.46362,8.76006 -18,11.21106 -8.02125,5.55938 -10.67298,6.95253 -11.3006,5.93702 z M 739.05919,380.58604 c -1.71386,-2.49102 -5.17474,-5.94549 -7.69084,-7.67662 -4.43895,-3.05408 -4.51972,-3.20109 -2.72154,-4.95359 2.91604,-2.84194 27.44241,-18.01872 28.28126,-17.50029 0.41435,0.25609 3.15422,4.38061 6.08861,9.16561 l 5.33525,8.70001 -2.42596,1.9071 c -1.33429,1.0489 -6.02597,4.04124 -10.42597,6.64963 -4.4,2.6084 -9.19806,5.52885 -10.66235,6.4899 l -2.66234,1.74736 z m 84.02892,-21.4623 C 818.2509,352.33051 808,334.59991 808,333.02641 c 0,-4.35259 7.22594,-6.66059 10.25787,-3.27641 3.38872,3.78242 15.74213,24.83377 15.74213,26.82604 0,5.50526 -7.55062,7.26817 -10.91189,2.5477 z m -157.97955,-16.1748 c -6.2653,-2.14417 -11.57033,-4.07737 -11.78896,-4.29601 -0.43017,-0.43016 23.25013,-15.30004 44.1804,-27.74277 7.15,-4.25056 16.07006,-9.62666 19.82236,-11.94687 3.75229,-2.32022 7.17512,-3.82364 7.60629,-3.34093 2.03577,2.27912 10.07027,15.58112 10.06205,16.65882 -0.0115,1.51224 -19.01587,13.97102 -36.9907,24.25022 -7.425,4.2461 -14.38763,8.33858 -15.47251,9.09439 -2.82462,1.96786 -4.68033,1.68269 -17.41893,-2.67685 z M 794.06305,311.8373 C 791.35906,308.93491 779,286.67314 779,284.70498 779,282.79961 783.63583,279 785.96054,279 c 2.15437,0 4.53545,2.65706 10.75356,12 8.93355,13.42298 10.06914,17.21676 6.2859,21 -2.61258,2.61258 -6.41589,2.54334 -8.93695,-0.1627 z"
         id="path53" />
      <path
         style="fill:#4d6dd3"
         d="m 409.24571,877.19607 c -0.68985,-0.45067 -2.40124,-5.23233 -3.80307,-10.62591 -1.40183,-5.39357 -3.68082,-12.79082 -5.06442,-16.43833 -1.3836,-3.64751 -3.81875,-12.74158 -5.41144,-20.20905 -1.59269,-7.46747 -4.22142,-17.32329 -5.84164,-21.90183 -1.62021,-4.57854 -2.67279,-9.03618 -2.33906,-9.90587 0.33374,-0.8697 2.49093,-4.28887 4.79377,-7.59817 2.30284,-3.3093 6.75939,-10.95828 9.90344,-16.99774 3.14405,-6.03945 8.03401,-14.20088 10.86658,-18.13651 2.83257,-3.93562 5.9494,-8.61373 6.9263,-10.3958 l 1.77616,-3.24012 7.22384,0.689 c 3.9731,0.37895 10.37383,1.34453 14.22383,2.14574 24.20703,5.03762 84.81111,6.77148 114.5,3.27581 13.59544,-1.60077 30.69539,-4.05218 46.09747,-6.60842 2.62242,-0.43524 4.22995,1.37875 8.64131,9.75113 2.76306,5.24404 4.22177,7.50004 5.48504,8.48297 2.3514,1.82958 7.77618,9.27278 7.77618,10.66949 0,0.75056 -2.8125,2.67358 -6.25,4.27339 -13.09613,6.09491 -23.37823,10.35132 -26.75,11.0735 -1.925,0.41231 -7.325,2.46543 -12,4.56248 -8.20029,3.67839 -17.18955,6.4132 -29.23038,8.89276 -6.52138,1.34295 -9.76962,4.43037 -9.76962,9.28592 0,4.09465 -2.24339,12.6316 -7.95177,30.25949 -2.67157,8.25 -6.04079,19.94295 -7.48716,25.98434 -1.44636,6.04139 -3.08646,11.44139 -3.64466,12 -1.24094,1.24186 -110.79984,1.93393 -112.6707,0.71173 z M 700.25,803.33772 c -2.88577,-1.16443 0.29704,-3.91157 6.75,-5.82606 2.35119,-0.69755 2.29486,-0.52652 -0.94617,2.87332 -3.55219,3.72624 -3.70023,3.80156 -5.80383,2.95274 z M 225.18538,789.31618 c -0.72305,-0.28926 -1.729,-1.61582 -2.23546,-2.9479 -0.50646,-1.33208 -1.82521,-2.75652 -2.93056,-3.16541 -3.44474,-1.2743 -19.07441,-16.36326 -24.55224,-23.70287 -4.82619,-6.46649 -8.89857,-10.60385 -25.11781,-25.5186 -3.3007,-3.03524 -9.18658,-9.12749 -13.07972,-13.53835 -6.89549,-7.81245 -7.05925,-8.12215 -6.33581,-11.9814 1.25593,-6.69989 15.74792,-32.46281 20.46107,-36.37438 0.88283,-0.73269 1.60515,-1.84557 1.60515,-2.47306 0,-0.6275 1.59591,-3.5107 3.54647,-6.40712 C 181.80983,655.39146 189,641.10277 189,638.45879 c 0,-1.272 -1.51338,-5.60809 -3.36306,-9.63576 C 183.78726,624.79536 181.66914,619.7 180.93,617.5 c -0.73914,-2.2 -1.91242,-4.69569 -2.6073,-5.54598 C 174.3833,607.13353 162.3735,575.5521 158.94589,561 c -0.71251,-3.025 -2.00431,-6.20224 -2.87068,-7.06054 -2.54502,-2.52133 -10.85648,-5.58831 -21.57521,-7.96139 -22.10171,-4.89324 -41.549002,-9.81817 -43,-10.88954 -0.55,-0.4061 -2.905157,-1.28302 -5.233683,-1.9487 -2.328526,-0.66568 -4.600329,-1.98197 -5.048451,-2.92508 -0.448123,-0.94311 -0.950358,-27.03145 -1.11608,-57.97409 l -0.301311,-56.25935 3.605866,-1.50662 c 1.983226,-0.82865 6.415619,-1.78733 9.849762,-2.13041 3.434144,-0.34308 7.423637,-1.21758 8.865547,-1.94334 3.17159,-1.59636 24.67866,-6.88051 34.37835,-8.44655 11.40708,-1.84169 20.35666,-4.0701 21.29335,-5.30194 0.48197,-0.63385 1.68847,-4.30245 2.68111,-8.15245 3.02012,-11.71367 8.62113,-28.68544 11.38568,-34.5 3.51522,-7.39342 12.90709,-22 14.14575,-22 0.54676,0 0.99981,-1.0125 1.00678,-2.25 0.007,-1.2375 1.35696,-4.90091 3,-8.14092 4.10173,-8.08848 4.24121,-7.13445 -2.76267,-18.89521 -1.7875,-3.00153 -3.25,-6.20886 -3.25,-7.12741 0,-0.91855 -0.9,-2.63612 -2,-3.81683 -1.1,-1.18072 -2,-2.89137 -2,-3.80146 0,-0.91009 -1.31664,-3.18773 -2.92587,-5.06144 C 169.60479,274.20981 163,265.07981 163,263.45162 c 0,-0.3252 -1.31979,-2.50952 -2.93286,-4.85404 -3.77649,-5.48893 -7.98539,-14.64703 -7.41485,-16.13385 0.24372,-0.63513 2.54449,-2.91179 5.11281,-5.05925 2.56832,-2.14747 6.45497,-5.83226 8.63699,-8.18844 2.18203,-2.35618 5.1217,-4.83169 6.53261,-5.50115 1.41092,-0.66945 3.34724,-2.79167 4.30295,-4.71604 2.5188,-5.07173 14.86399,-17.98645 25.26235,-26.42778 11.63972,-9.44906 22.5,-19.77527 22.5,-21.39352 0,-1.91901 5.01753,-6.17755 7.27856,-6.17755 1.88938,0 24.17448,12.64483 28.06343,15.92353 2.39258,2.01714 8.87328,5.74693 20.65801,11.88918 5.225,2.72328 11.525,6.12408 14,7.55731 5.85279,3.38927 9.72519,3.30173 17.72426,-0.40068 3.60127,-1.66686 6.774,-2.80441 7.05053,-2.52788 0.27653,0.27652 1.82862,-0.61285 3.4491,-1.9764 3.7934,-3.19193 21.43919,-11.78937 30.57375,-14.89623 3.8981,-1.32583 10.97515,-3.38456 15.72676,-4.57494 14.49121,-3.63038 19.05239,-6.51303 19.86687,-12.55582 2.41364,-17.90717 7.51519,-38.2379 9.8543,-39.2714 0.41494,-0.18334 0.75443,-1.14088 0.75443,-2.12788 0,-1.67525 1.83997,-6.92354 4.04533,-11.53879 0.52563,-1.1 1.12739,-5.52443 1.33724,-9.83206 0.20986,-4.307637 0.90697,-8.357637 1.54915,-9.000002 C 407.79506,90.804346 423.13112,90.5 465.78438,90.5 h 57.68507 l 1.75962,6.5 c 0.96778,3.575 1.91679,7.4 2.10891,8.5 0.19212,1.1 0.83209,3.16797 1.42217,4.59549 1.96024,4.74226 6.98315,23.28931 8.50496,31.40451 2.24501,11.97168 5.35763,22.51468 7.50393,25.41717 1.38971,1.87934 3.7788,3.05555 8.77137,4.31839 15.3182,3.87465 35.41856,11.05452 40.1324,14.33533 5.04023,3.50799 6.84618,4.45572 11.82719,6.20676 6.67989,2.34825 16.26546,6.40781 20.64738,8.74431 5.584,2.97746 7.56718,3.06457 13.11352,0.57604 2.3315,-1.04611 6.90766,-3.08332 10.16923,-4.52715 3.26158,-1.44383 7.76158,-4.11283 10,-5.93111 3.61171,-2.93381 6.45529,-4.6663 18.06987,-11.00936 7.70883,-4.21001 19.26716,-8.90746 21.75,-8.83946 1.5125,0.0414 2.75,-0.34459 2.75,-0.8578 0,-2.44237 3.31131,-0.16159 12.50152,8.61087 7.87655,7.51851 9.41486,9.40553 7.24848,8.89159 -1.52473,-0.36172 -2.75,-0.23006 -2.75,0.2955 0,0.52134 -1.2375,1.5111 -2.75,2.19948 -1.5125,0.68837 -5.675,3.18691 -9.25,5.55231 -9.31637,6.16419 -14.28707,8.99474 -24.69955,14.06513 -5.05976,2.46385 -9.45677,4.89591 -9.77114,5.40457 -0.31436,0.50866 -3.14956,2.39641 -6.30044,4.19501 C 663.07799,220.94617 656.225,225.4252 651,229.10097 639.8805,236.9235 618.28761,250 616.48997,250 c -0.6848,0 -1.79082,0.65757 -2.45783,1.46127 -0.66701,0.8037 -2.18461,1.75188 -3.37245,2.10707 -3.56697,1.06659 -16.51272,9.1984 -26.05006,16.36322 -3.24445,2.43736 -7.29639,5.15784 -9.00431,6.0455 -1.70793,0.88767 -5.06464,2.86616 -7.45936,4.39666 -3.95534,2.52791 -4.64213,2.66865 -7.5,1.53691 -1.73028,-0.68521 -3.72322,-1.68775 -4.42875,-2.22789 -5.69353,-4.35877 -24.26639,-10.29761 -51.71721,-16.53704 -22.97102,-5.2212 -45.57575,-5.53807 -72,-1.0093 -8.35905,1.43263 -34.71724,7.6539 -42.2848,9.98039 -7.22835,2.2222 -20.79714,8.59719 -26.87381,12.62604 -6.83875,4.53412 -20.30814,13.84046 -28.93067,19.98894 -4.4491,3.17253 -9.6241,6.85184 -11.5,8.17624 -4.35331,3.0735 -22.44178,21.42756 -23.28622,23.62815 -0.35138,0.91568 -1.55926,2.85714 -2.68417,4.31436 -4.10145,5.31303 -21.60982,32.76539 -24.84674,38.9586 -0.77352,1.47998 -3.36102,5.50134 -5.75,8.93635 C 263.6682,392.5923 262,396.09783 262,397.87303 c 0,1.58514 -0.64655,3.41867 -1.43679,4.07451 -0.79023,0.65583 -1.73567,3.74843 -2.10098,6.87244 -0.3653,3.12401 -1.93646,11.53002 -3.49145,18.68002 -1.555,7.15 -3.52272,19.06095 -4.37272,26.46879 -1.17665,10.2546 -2.02901,14.12283 -3.57176,16.2095 -1.11446,1.5074 -2.0263,3.1392 -2.0263,3.62623 0,0.48703 -0.9,1.69999 -2,2.69548 -1.13223,1.02466 -2,3.07997 -2,4.73702 0,1.60987 -1.06591,6.15262 -2.36869,10.09501 -2.68941,8.13851 -5.99016,19.72884 -10.58486,37.16797 -5.59263,21.22677 -10.17542,36.95048 -11.09104,38.05372 -2.41939,2.9152 -5.84377,21.28289 -12.01501,64.44628 -2.16672,15.15464 -4.61627,27.33115 -6.06891,30.16804 -0.46977,0.91742 -1.32153,11.26742 -1.8928,23 -0.57126,11.73258 -1.30723,24.78648 -1.63548,29.00867 -0.32825,4.22219 -0.30574,8.83643 0.05,10.25387 0.40888,1.62912 3.49043,4.7663 8.37681,8.52803 4.25148,3.27297 8.67733,6.87123 9.83521,7.99612 1.15788,1.1249 2.60058,2.04527 3.20599,2.04527 1.65995,0 19.0403,10.67852 26.18877,16.09044 1.375,1.04097 5.425,3.85311 9,6.2492 3.575,2.39608 7.36023,5.32818 8.41161,6.51576 l 1.91162,2.15925 -3.17235,-0.63447 c -2.89524,-0.57905 -3.14958,-0.42683 -2.91162,1.74267 0.23291,2.12345 -1.18002,3.09475 -13.23926,9.10108 -13.11625,6.53281 -15.05559,7.19602 -17.81462,6.09225 z M 352,783.10118 c -12.58689,-4.07812 -43.47305,-16.71406 -51.5,-21.06934 -3.85,-2.08894 -12.85,-6.84998 -20,-10.58009 -20.94484,-10.92677 -40.36627,-23.40188 -53.25,-34.20445 l -5.25,-4.40195 0.0129,-6.17267 c 0.0272,-13.05332 4.29173,-50.97971 8.56494,-76.17268 2.22521,-13.11887 12.09875,-60.36039 15.04348,-71.97794 3.63422,-14.33773 19.98172,-64.09764 27.60356,-84.02206 3.57673,-9.35 9.09748,-22.4 12.26833,-29 3.17085,-6.6 7.30475,-15.58041 9.18644,-19.95646 6.24967,-14.53423 17.25531,-33.5273 20.67654,-35.68271 11.78102,-7.42216 46.97158,-22.26245 69.64383,-29.36966 18.59871,-5.83025 48.51166,-11.66001 52.32332,-10.19734 1.39684,0.53601 1.67668,2.1437 1.67668,9.63244 v 8.98904 l -7.25,2.10701 c -3.9875,1.15886 -8.11468,2.35773 -9.17151,2.66417 -4.7274,1.37074 -37.29917,16.71243 -42.40741,19.97439 C 367.84791,401.53007 356,411.35074 356,413.69617 c 0,2.03641 2.55605,1.55673 8.9774,-1.68476 9.10185,-4.5946 42.15433,-16.75788 52.90998,-19.47082 28.36955,-7.15577 41.70628,-9.3154 71.12879,-11.51797 15.98489,-1.19663 56.52427,0.14074 74.00015,2.44123 31.72022,4.17558 70.75428,15.1366 94.85115,26.63481 12.98931,6.19806 15.13253,6.82715 15.13253,4.44181 0,-2.25644 -4.3096,-5.81037 -19.5,-16.08072 -17.34648,-11.72809 -43.30837,-23.59236 -62.25,-28.44748 l -4.25,-1.08936 0.0153,-8.21145 c 0.008,-4.5163 0.36042,-8.75445 0.78222,-9.4181 0.89939,-1.41508 10.91286,-0.0242 34.35051,4.77139 23.93784,4.89791 53.23872,15.21692 78.85196,27.76962 l 16.5,8.08643 11.26092,22.7896 c 6.19351,12.53428 11.25601,23.11156 11.25,23.50507 -0.006,0.39351 2.96437,7.14351 6.60083,15 3.63645,7.85649 8.98606,20.58453 11.888,28.28453 2.90194,7.7 6.26596,16.475 7.47561,19.5 1.20966,3.025 3.68602,10.675 5.50304,17 1.81703,6.325 5.35767,18.08385 7.86811,26.13079 11.73638,37.61972 24.45595,109.46401 28.22924,159.44793 l 0.67572,8.95114 -5.87574,4.20305 c -18.69971,13.37636 -25.45202,18.03287 -32.37816,22.32861 -12.96789,8.04293 -45.10446,24.75192 -53.53365,27.8341 -4.38015,1.60163 -12.01528,4.69754 -16.96694,6.87979 -7.93648,3.4977 -12.76061,5.2132 -30.15813,10.72446 -3.87802,1.2285 -4.29532,1.17128 -6.13303,-0.84084 -1.08453,-1.18747 -2.76262,-3.73403 -3.72909,-5.65903 -0.96647,-1.925 -5.23774,-8.675 -9.49172,-15 -13.7127,-20.38865 -18.23155,-28.22948 -16.78513,-29.12455 0.71507,-0.4425 6.47512,-2.63938 12.80012,-4.88198 12.84326,-4.5537 17.3917,-6.68288 34,-15.91577 14.02688,-7.79782 18.86075,-10.94758 19.95871,-13.00512 0.99875,-1.87164 -5.39502,-18.64229 -7.40076,-19.41197 -0.71267,-0.27348 -4.61726,1.27315 -8.67686,3.43696 -19.65082,10.47408 -28.23246,14.43097 -42.21498,19.4648 -18.26313,6.57489 -24.85262,8.45791 -43.29825,12.37295 -42.676,9.05788 -91.808,11.0433 -138.45143,5.5948 C 444.3613,719.7131 413.60096,713.4701 403.0237,709.98339 376.38438,701.20194 369.49607,698.118 339.21424,681.41547 334.02129,678.5512 333.90755,678.53512 332.73675,680.5 330.59338,684.09711 326,696.08896 326,698.0875 c 0,3.93949 31.74058,21.78185 53.93347,30.31768 7.86956,3.02679 14.51908,5.71404 14.77671,5.97167 0.53541,0.53541 -5.13416,10.56032 -14.20836,25.12315 -3.42709,5.5 -8.40281,13.7125 -11.05716,18.25 -3.63967,6.22188 -5.33232,8.2322 -6.88537,8.17757 C 361.42668,785.88774 356.675,784.61586 352,783.10118 Z M 616.5,637.4956 c 19.20535,-4.03221 32.828,-16.54803 39.41665,-36.21405 2.32892,-6.95143 2.82186,-21.34752 1.00264,-29.28155 -1.64162,-7.1595 -7.45871,-18.27141 -12.50097,-23.87963 C 635.53482,538.23978 619.28866,531 606,531 c -18.22602,0 -36.81512,11.70662 -45.02131,28.35249 -7.71594,15.65142 -8.76772,30.56393 -3.17206,44.97455 5.61177,14.4521 12.69744,22.38468 25.61715,28.679 12.0439,5.86764 20.8314,7.0604 33.07622,4.48956 z m -179,-2.78235 c 14.73246,-5.99079 22.64652,-13.39934 29.07007,-27.21325 6.20006,-13.3333 6.75344,-25.69959 1.81124,-40.47545 C 464.0727,554.14293 457.13324,545.49948 445.5,538.5247 c -20.80053,-12.47109 -45.3185,-9.06082 -62.0014,8.62393 -20.44692,21.67481 -20.65541,53.64452 -0.49042,75.20096 9.93516,10.62072 21.60884,15.46631 37.49182,15.56235 7.92129,0.0479 9.95886,-0.33549 17,-3.19869 z M 808.62943,553.20941 C 807.80135,551.86955 805,539.01285 805,536.55225 c 0,-1.278 -0.67223,-3.61257 -1.49384,-5.18794 -1.75471,-3.3645 -1.92563,-7.34958 -0.45377,-10.57994 1.12871,-2.47726 12.06495,-10.10402 23.44761,-16.35201 3.85,-2.11328 9.925,-5.88801 13.5,-8.38829 8.39074,-5.86831 13.70675,-8.37376 14.31314,-6.74582 0.54667,1.46761 -0.24821,50.33305 -0.86817,53.37134 -0.46235,2.26583 -4.29404,3.45848 -20.44497,6.36368 -3.575,0.64307 -9.32195,2.02366 -12.771,3.06797 -6.64828,2.013 -10.7955,2.4092 -11.59957,1.10817 z m -19.00025,-56.00039 c -1.42748,-2.30971 -7.72884,-20.41004 -7.42392,-21.32481 0.1964,-0.5892 4.45757,-3.61668 9.46927,-6.72774 15.69589,-9.74337 28.09631,-17.40064 40.27305,-24.86863 l 11.7596,-7.21216 0.63236,-6.05015 c 0.67989,-6.50484 3.17182,-12.37171 6.55405,-15.43052 3.20907,-2.9022 2.60502,-5.50223 -3.52959,-15.19242 -9.34065,-14.75444 -9.51652,-15.11058 -9.18133,-18.59234 0.23588,-2.45026 1.02731,-3.63495 3.08342,-4.61557 4.24252,-2.02339 6.38272,-0.65845 10.37753,6.61836 6.37306,11.60897 12.40298,20.99086 13.84748,21.54517 0.76687,0.29427 2.87962,0.10906 4.695,-0.41158 5.05379,-1.44941 8.74729,-1.16585 15.44334,1.18562 l 6.12944,2.15249 5.87056,-3.33849 c 3.22881,-1.83616 14.42056,-8.73213 24.87056,-15.32436 10.45,-6.59224 24.175,-14.96125 30.5,-18.59781 10.04582,-5.77585 11.78451,-7.17058 13.75,-11.02989 4.27797,-8.39998 4.06616,-8.99934 -13.07343,-36.99419 -9.92066,-16.20383 -8.07178,-14.87435 -20.51684,-14.75319 -17.58712,0.17123 -29.44631,-4.60688 -41.62625,-16.77135 -12.31834,-12.30268 -17.56887,-23.67607 -18.3113,-39.66482 -0.55233,-11.89483 1.47332,-21.9978 6.33336,-31.58776 3.44489,-6.79755 4.15575,-10.04093 2.5803,-11.77288 -0.47528,-0.5225 -2.47612,-3.92924 -4.44631,-7.57053 -1.97018,-3.64129 -6.66933,-11.51629 -10.44255,-17.5 -7.52609,-11.93513 -8.8945,-12.90828 -19.79379,-14.07643 -4.75832,-0.50998 -5.64951,-0.19874 -15.59012,5.44473 -5.79881,3.2921 -14.55275,8.67314 -19.45318,11.95787 -4.90044,3.28473 -15.54806,9.90653 -23.66137,14.71512 -10.5329,6.24261 -14.87844,9.36293 -15.19541,10.91106 -0.24415,1.1925 -0.73635,4.40762 -1.09376,7.14471 -0.6955,5.3262 -3.32285,11.33537 -5.88626,13.46281 -2.39448,1.98725 -1.98832,3.61716 3.42691,13.7521 2.75,5.14679 5,10.62698 5,12.17819 0,3.45581 -2.75665,6.13037 -6.31853,6.13037 -2.77837,0 -4.57616,-2.293 -12.7405,-16.25 -3.70142,-6.3276 -4.23679,-6.52329 -12.81396,-4.68382 -3.9867,0.855 -6.27608,0.73899 -11.55789,-0.58563 l -6.58644,-1.65182 -7.74134,4.24784 c -8.01842,4.39989 -25.13002,14.78679 -43.13119,26.18105 -5.71442,3.61707 -14.17607,8.75132 -18.80368,11.40944 -4.6276,2.65812 -16.82717,10.0791 -27.11015,16.49108 -20.77555,12.95464 -36.48141,22.55061 -55.19632,33.72384 -6.875,4.10453 -16.91757,10.31641 -22.31682,13.80417 -17.33897,11.20047 -14.7848,10.56953 -37.10831,9.16672 l -19.36772,-1.21706 8.46693,-5.86937 c 4.65682,-3.22815 16.42271,-10.64498 26.14643,-16.48185 16.49928,-9.90405 24.31352,-14.76119 36.67949,-22.79908 11.10621,-7.21904 24.56103,-15.4969 34.5,-21.22554 5.775,-3.32861 15.45,-9.22675 21.5,-13.10698 11.85569,-7.60377 43.70076,-27.24366 57.5,-35.46211 4.675,-2.7843 16.26304,-9.9758 25.75119,-15.98111 l 17.25119,-10.91873 2.7613,2.95598 c 4.58672,4.91009 8.75144,6.52843 15.53744,6.03758 5.4639,-0.39522 6.30783,-0.78356 9.77082,-4.49607 5.14782,-5.51873 6.38154,-10.39849 4.35461,-17.22391 -0.85944,-2.89404 -1.4195,-5.39174 -1.24458,-5.55045 1.04039,-0.94399 34.46806,-21.89142 40.08993,-25.12233 3.72454,-2.14051 11.59954,-6.90534 17.5,-10.5885 26.32503,-16.43253 29.28932,-18.04356 32.06264,-17.42543 1.466,0.32675 5.99442,1.49629 10.06314,2.59898 4.06872,1.10269 10.36462,2.23112 13.99089,2.50763 7.74034,0.5902 7.15298,0.004 16.56124,16.51548 3.60409,6.325 8.99809,15.325 11.98666,20 C 906.15642,200.76916 914,213.89795 914,215.0721 c 0,0.65732 -2.26007,3.41983 -5.02237,6.13891 -9.06932,8.92739 -12.86958,20.4742 -10.87371,33.03899 2.36976,14.91861 10.47079,23.95412 25.35654,28.28153 7.27933,2.11616 16.71485,1.55267 24.34205,-1.45369 2.89934,-1.14281 5.61534,-2.07784 6.03555,-2.07784 0.42021,0 2.73782,3.4875 5.15025,7.75 2.41243,4.2625 9.88645,16.35987 16.60893,26.88305 6.72247,10.52317 14.08546,22.52712 16.36219,26.67544 l 4.13951,7.5424 -4.59738,13.32456 c -2.52856,7.3285 -5.03784,14.45926 -5.57617,15.84612 -0.98574,2.53947 -20.16963,15.46537 -37.42539,25.21682 -8.09057,4.57208 -26.55616,15.80593 -42.94702,26.12752 -4.92086,3.09875 -9.44917,5.63409 -10.06291,5.63409 -0.61374,0 -2.43758,-1.39017 -4.05298,-3.08928 -4.1486,-4.36356 -7.63616,-5.92867 -13.50556,-6.06091 -6.36738,-0.14345 -9.54152,1.97751 -12.85341,8.58867 -2.28457,4.56041 -2.35152,5.17521 -1.18083,10.84313 1.0143,4.91072 1.00002,6.23602 -0.0781,7.25318 -2.11739,1.99763 -32.27069,21.15934 -44.8894,28.52615 -6.36362,3.71508 -14.46362,8.76006 -18,11.21106 -8.02125,5.55938 -10.67298,6.95253 -11.3006,5.93702 z M 739.05919,380.58604 c -1.71386,-2.49102 -5.17474,-5.94549 -7.69084,-7.67662 -4.43895,-3.05408 -4.51972,-3.20109 -2.72154,-4.95359 2.91604,-2.84194 27.44241,-18.01872 28.28126,-17.50029 0.41435,0.25609 3.15422,4.38061 6.08861,9.16561 l 5.33525,8.70001 -2.42596,1.9071 c -1.33429,1.0489 -6.02597,4.04124 -10.42597,6.64963 -4.4,2.6084 -9.19806,5.52885 -10.66235,6.4899 l -2.66234,1.74736 z m 84.02892,-21.4623 C 818.2509,352.33051 808,334.59991 808,333.02641 c 0,-4.35259 7.22594,-6.66059 10.25787,-3.27641 3.38872,3.78242 15.74213,24.83377 15.74213,26.82604 0,5.50526 -7.55062,7.26817 -10.91189,2.5477 z m -157.97955,-16.1748 c -6.2653,-2.14417 -11.57033,-4.07737 -11.78896,-4.29601 -0.43017,-0.43016 23.25013,-15.30004 44.1804,-27.74277 7.15,-4.25056 16.07006,-9.62666 19.82236,-11.94687 3.75229,-2.32022 7.17512,-3.82364 7.60629,-3.34093 2.03577,2.27912 10.07027,15.58112 10.06205,16.65882 -0.0115,1.51224 -19.01587,13.97102 -36.9907,24.25022 -7.425,4.2461 -14.38763,8.33858 -15.47251,9.09439 -2.82462,1.96786 -4.68033,1.68269 -17.41893,-2.67685 z M 794.06305,311.8373 C 791.35906,308.93491 779,286.67314 779,284.70498 779,282.79961 783.63583,279 785.96054,279 c 2.15437,0 4.53545,2.65706 10.75356,12 8.93355,13.42298 10.06914,17.21676 6.2859,21 -2.61258,2.61258 -6.41589,2.54334 -8.93695,-0.1627 z"
         id="path52" />
      <path
         style="fill:#db7837"
         d="m 409.24571,877.19607 c -0.68985,-0.45067 -2.40124,-5.23233 -3.80307,-10.62591 -1.40183,-5.39357 -3.68082,-12.79082 -5.06442,-16.43833 -1.3836,-3.64751 -3.81875,-12.74158 -5.41144,-20.20905 -1.59269,-7.46747 -4.22142,-17.32329 -5.84164,-21.90183 -1.62021,-4.57854 -2.67279,-9.03618 -2.33906,-9.90587 0.33374,-0.8697 2.49093,-4.28887 4.79377,-7.59817 2.30284,-3.3093 6.75939,-10.95828 9.90344,-16.99774 3.14405,-6.03945 8.03401,-14.20088 10.86658,-18.13651 2.83257,-3.93562 5.9494,-8.61373 6.9263,-10.3958 l 1.77616,-3.24012 7.22384,0.689 c 3.9731,0.37895 10.37383,1.34453 14.22383,2.14574 24.20703,5.03762 84.81111,6.77148 114.5,3.27581 13.59544,-1.60077 30.69539,-4.05218 46.09747,-6.60842 2.62242,-0.43524 4.22995,1.37875 8.64131,9.75113 2.76306,5.24404 4.22177,7.50004 5.48504,8.48297 2.3514,1.82958 7.77618,9.27278 7.77618,10.66949 0,0.75056 -2.8125,2.67358 -6.25,4.27339 -13.09613,6.09491 -23.37823,10.35132 -26.75,11.0735 -1.925,0.41231 -7.325,2.46543 -12,4.56248 -8.20029,3.67839 -17.18955,6.4132 -29.23038,8.89276 -6.52138,1.34295 -9.76962,4.43037 -9.76962,9.28592 0,4.09465 -2.24339,12.6316 -7.95177,30.25949 -2.67157,8.25 -6.04079,19.94295 -7.48716,25.98434 -1.44636,6.04139 -3.08646,11.44139 -3.64466,12 -1.24094,1.24186 -110.79984,1.93393 -112.6707,0.71173 z M 700.25,803.33772 c -2.88577,-1.16443 0.29704,-3.91157 6.75,-5.82606 2.35119,-0.69755 2.29486,-0.52652 -0.94617,2.87332 -3.55219,3.72624 -3.70023,3.80156 -5.80383,2.95274 z M 225.18538,789.31618 c -0.72305,-0.28926 -1.729,-1.61582 -2.23546,-2.9479 -0.50646,-1.33208 -1.82521,-2.75652 -2.93056,-3.16541 -3.44474,-1.2743 -19.07441,-16.36326 -24.55224,-23.70287 -4.82619,-6.46649 -8.89857,-10.60385 -25.11781,-25.5186 -3.3007,-3.03524 -9.18658,-9.12749 -13.07972,-13.53835 -6.89549,-7.81245 -7.05925,-8.12215 -6.33581,-11.9814 1.25593,-6.69989 15.74792,-32.46281 20.46107,-36.37438 0.88283,-0.73269 1.60515,-1.84557 1.60515,-2.47306 0,-0.6275 1.59591,-3.5107 3.54647,-6.40712 C 181.80983,655.39146 189,641.10277 189,638.45879 c 0,-1.272 -1.51338,-5.60809 -3.36306,-9.63576 C 183.78726,624.79536 181.66914,619.7 180.93,617.5 c -0.73914,-2.2 -1.91242,-4.69569 -2.6073,-5.54598 C 174.3833,607.13353 162.3735,575.5521 158.94589,561 c -0.71251,-3.025 -2.00431,-6.20224 -2.87068,-7.06054 -2.54502,-2.52133 -10.85648,-5.58831 -21.57521,-7.96139 -22.10171,-4.89324 -41.549002,-9.81817 -43,-10.88954 -0.55,-0.4061 -2.905157,-1.28302 -5.233683,-1.9487 -2.328526,-0.66568 -4.600329,-1.98197 -5.048451,-2.92508 -0.448123,-0.94311 -0.950358,-27.03145 -1.11608,-57.97409 l -0.301311,-56.25935 3.605866,-1.50662 c 1.983226,-0.82865 6.415619,-1.78733 9.849762,-2.13041 3.434144,-0.34308 7.423637,-1.21758 8.865547,-1.94334 3.17159,-1.59636 24.67866,-6.88051 34.37835,-8.44655 11.40708,-1.84169 20.35666,-4.0701 21.29335,-5.30194 0.48197,-0.63385 1.68847,-4.30245 2.68111,-8.15245 3.02012,-11.71367 8.62113,-28.68544 11.38568,-34.5 3.51522,-7.39342 12.90709,-22 14.14575,-22 0.54676,0 0.99981,-1.0125 1.00678,-2.25 0.007,-1.2375 1.35696,-4.90091 3,-8.14092 4.10173,-8.08848 4.24121,-7.13445 -2.76267,-18.89521 -1.7875,-3.00153 -3.25,-6.20886 -3.25,-7.12741 0,-0.91855 -0.9,-2.63612 -2,-3.81683 -1.1,-1.18072 -2,-2.89137 -2,-3.80146 0,-0.91009 -1.31664,-3.18773 -2.92587,-5.06144 C 169.60479,274.20981 163,265.07981 163,263.45162 c 0,-0.3252 -1.31979,-2.50952 -2.93286,-4.85404 -3.77649,-5.48893 -7.98539,-14.64703 -7.41485,-16.13385 0.24372,-0.63513 2.54449,-2.91179 5.11281,-5.05925 2.56832,-2.14747 6.45497,-5.83226 8.63699,-8.18844 2.18203,-2.35618 5.1217,-4.83169 6.53261,-5.50115 1.41092,-0.66945 3.34724,-2.79167 4.30295,-4.71604 2.5188,-5.07173 14.86399,-17.98645 25.26235,-26.42778 11.63972,-9.44906 22.5,-19.77527 22.5,-21.39352 0,-1.91901 5.01753,-6.17755 7.27856,-6.17755 1.88938,0 24.17448,12.64483 28.06343,15.92353 2.39258,2.01714 8.87328,5.74693 20.65801,11.88918 5.225,2.72328 11.525,6.12408 14,7.55731 5.85279,3.38927 9.72519,3.30173 17.72426,-0.40068 3.60127,-1.66686 6.774,-2.80441 7.05053,-2.52788 0.27653,0.27652 1.82862,-0.61285 3.4491,-1.9764 3.7934,-3.19193 21.43919,-11.78937 30.57375,-14.89623 3.8981,-1.32583 10.97515,-3.38456 15.72676,-4.57494 14.49121,-3.63038 19.05239,-6.51303 19.86687,-12.55582 2.41364,-17.90717 7.51519,-38.2379 9.8543,-39.2714 0.41494,-0.18334 0.75443,-1.14088 0.75443,-2.12788 0,-1.67525 1.83997,-6.92354 4.04533,-11.53879 0.52563,-1.1 1.12739,-5.52443 1.33724,-9.83206 0.20986,-4.307637 0.90697,-8.357637 1.54915,-9.000002 C 407.79506,90.804346 423.13112,90.5 465.78438,90.5 h 57.68507 l 1.75962,6.5 c 0.96778,3.575 1.91679,7.4 2.10891,8.5 0.19212,1.1 0.83209,3.16797 1.42217,4.59549 1.96024,4.74226 6.98315,23.28931 8.50496,31.40451 2.24501,11.97168 5.35763,22.51468 7.50393,25.41717 1.38971,1.87934 3.7788,3.05555 8.77137,4.31839 15.3182,3.87465 35.41856,11.05452 40.1324,14.33533 5.04023,3.50799 6.84618,4.45572 11.82719,6.20676 6.67989,2.34825 16.26546,6.40781 20.64738,8.74431 5.584,2.97746 7.56718,3.06457 13.11352,0.57604 2.3315,-1.04611 6.90766,-3.08332 10.16923,-4.52715 3.26158,-1.44383 7.76158,-4.11283 10,-5.93111 3.61171,-2.93381 6.45529,-4.6663 18.06987,-11.00936 7.70883,-4.21001 19.26716,-8.90746 21.75,-8.83946 1.5125,0.0414 2.75,-0.34459 2.75,-0.8578 0,-2.44237 3.31131,-0.16159 12.50152,8.61087 7.87655,7.51851 9.41486,9.40553 7.24848,8.89159 -1.52473,-0.36172 -2.75,-0.23006 -2.75,0.2955 0,0.52134 -1.2375,1.5111 -2.75,2.19948 -1.5125,0.68837 -5.675,3.18691 -9.25,5.55231 -9.31637,6.16419 -14.28707,8.99474 -24.69955,14.06513 -5.05976,2.46385 -9.45677,4.89591 -9.77114,5.40457 -0.31436,0.50866 -3.14956,2.39641 -6.30044,4.19501 C 663.07799,220.94617 656.225,225.4252 651,229.10097 639.8805,236.9235 618.28761,250 616.48997,250 c -0.6848,0 -1.79082,0.65757 -2.45783,1.46127 -0.66701,0.8037 -2.18461,1.75188 -3.37245,2.10707 -3.56697,1.06659 -16.51272,9.1984 -26.05006,16.36322 -3.24445,2.43736 -7.29639,5.15784 -9.00431,6.0455 -1.70793,0.88767 -5.06464,2.86616 -7.45936,4.39666 -3.95534,2.52791 -4.64213,2.66865 -7.5,1.53691 -1.73028,-0.68521 -3.72322,-1.68775 -4.42875,-2.22789 -5.69353,-4.35877 -24.26639,-10.29761 -51.71721,-16.53704 -22.97102,-5.2212 -45.57575,-5.53807 -72,-1.0093 -8.35905,1.43263 -34.71724,7.6539 -42.2848,9.98039 -7.22835,2.2222 -20.79714,8.59719 -26.87381,12.62604 -6.83875,4.53412 -20.30814,13.84046 -28.93067,19.98894 -4.4491,3.17253 -9.6241,6.85184 -11.5,8.17624 -4.35331,3.0735 -22.44178,21.42756 -23.28622,23.62815 -0.35138,0.91568 -1.55926,2.85714 -2.68417,4.31436 -4.10145,5.31303 -21.60982,32.76539 -24.84674,38.9586 -0.77352,1.47998 -3.36102,5.50134 -5.75,8.93635 C 263.6682,392.5923 262,396.09783 262,397.87303 c 0,1.58514 -0.64655,3.41867 -1.43679,4.07451 -0.79023,0.65583 -1.73567,3.74843 -2.10098,6.87244 -0.3653,3.12401 -1.93646,11.53002 -3.49145,18.68002 -1.555,7.15 -3.52272,19.06095 -4.37272,26.46879 -1.17665,10.2546 -2.02901,14.12283 -3.57176,16.2095 -1.11446,1.5074 -2.0263,3.1392 -2.0263,3.62623 0,0.48703 -0.9,1.69999 -2,2.69548 -1.13223,1.02466 -2,3.07997 -2,4.73702 0,1.60987 -1.06591,6.15262 -2.36869,10.09501 -2.68941,8.13851 -5.99016,19.72884 -10.58486,37.16797 -5.59263,21.22677 -10.17542,36.95048 -11.09104,38.05372 -2.41939,2.9152 -5.84377,21.28289 -12.01501,64.44628 -2.16672,15.15464 -4.61627,27.33115 -6.06891,30.16804 -0.46977,0.91742 -1.32153,11.26742 -1.8928,23 -0.57126,11.73258 -1.30723,24.78648 -1.63548,29.00867 -0.32825,4.22219 -0.30574,8.83643 0.05,10.25387 0.40888,1.62912 3.49043,4.7663 8.37681,8.52803 4.25148,3.27297 8.67733,6.87123 9.83521,7.99612 1.15788,1.1249 2.60058,2.04527 3.20599,2.04527 1.65995,0 19.0403,10.67852 26.18877,16.09044 1.375,1.04097 5.425,3.85311 9,6.2492 3.575,2.39608 7.36023,5.32818 8.41161,6.51576 l 1.91162,2.15925 -3.17235,-0.63447 c -2.89524,-0.57905 -3.14958,-0.42683 -2.91162,1.74267 0.23291,2.12345 -1.18002,3.09475 -13.23926,9.10108 -13.11625,6.53281 -15.05559,7.19602 -17.81462,6.09225 z M 808.62943,553.20941 C 807.80135,551.86955 805,539.01285 805,536.55225 c 0,-1.278 -0.67223,-3.61257 -1.49384,-5.18794 -1.75471,-3.3645 -1.92563,-7.34958 -0.45377,-10.57994 1.12871,-2.47726 12.06495,-10.10402 23.44761,-16.35201 3.85,-2.11328 9.925,-5.88801 13.5,-8.38829 8.39074,-5.86831 13.70675,-8.37376 14.31314,-6.74582 0.54667,1.46761 -0.24821,50.33305 -0.86817,53.37134 -0.46235,2.26583 -4.29404,3.45848 -20.44497,6.36368 -3.575,0.64307 -9.32195,2.02366 -12.771,3.06797 -6.64828,2.013 -10.7955,2.4092 -11.59957,1.10817 z"
         id="path51" />
    </g>
  </g>
</svg>
